<?xml version="1.0" encoding="UTF-8" standalone="no"?>
<!-- Created with Inkscape (http://www.inkscape.org/) -->

<svg
   xmlns:dc="http://purl.org/dc/elements/1.1/"
   xmlns:cc="http://creativecommons.org/ns#"
   xmlns:rdf="http://www.w3.org/1999/02/22-rdf-syntax-ns#"
   xmlns:svg="http://www.w3.org/2000/svg"
   xmlns="http://www.w3.org/2000/svg"
   xmlns:sodipodi="http://sodipodi.sourceforge.net/DTD/sodipodi-0.dtd"
   xmlns:inkscape="http://www.inkscape.org/namespaces/inkscape"
   width="90"
   height="50"
   viewBox="0 0 23.812499 13.229167"
   version="1.1"
   id="svg4946"
   inkscape:version="0.92.3 (2405546, 2018-03-11)"
   sodipodi:docname="logo.svg">
  <defs
     id="defs4940" />
  <sodipodi:namedview
     id="base"
     pagecolor="#ffffff"
     bordercolor="#666666"
     borderopacity="1.0"
     inkscape:pageopacity="0.0"
     inkscape:pageshadow="2"
     inkscape:zoom="4.4706658"
     inkscape:cx="40.532589"
     inkscape:cy="21.960724"
     inkscape:document-units="mm"
     inkscape:current-layer="g5003"
     showgrid="false"
     units="px"
     inkscape:window-width="1366"
     inkscape:window-height="732"
     inkscape:window-x="0"
     inkscape:window-y="0"
     inkscape:window-maximized="1"
     showguides="true"
     inkscape:guide-bbox="true" />
  <metadata
     id="metadata4943">
    <rdf:RDF>
      <cc:Work
         rdf:about="">
        <dc:format>image/svg+xml</dc:format>
        <dc:type
           rdf:resource="http://purl.org/dc/dcmitype/StillImage" />
        <dc:title />
      </cc:Work>
    </rdf:RDF>
  </metadata>
  <g
     inkscape:label="Camada 1"
     inkscape:groupmode="layer"
     id="layer1"
     transform="translate(0,-283.77082)">
    <g
       id="g5003"
       transform="translate(-0.96285998,-0.09174667)">
      <g
         id="g847"
         transform="translate(1.2104211)">
        <g
           id="g858"
           style="isolation:isolate"
           transform="matrix(0.25220926,0,0,0.25220926,-108.45727,281.84789)">
          <g
             id="g842">
            <path
               style="fill:#002222;fill-rule:evenodd"
               inkscape:connector-curvature="0"
               id="path838"
               d="m 447.461,27.232 0.036,-3.38 h 4.291 c 3.419,0 6.019,0.545 7.802,2.491 1.783,1.946 2.674,4.785 2.674,8.517 0,3.913 -0.943,6.872 -2.828,8.876 -1.885,2.004 -4.654,2.564 -8.307,2.564 h -3.668 l -9.696,-5.908 V 32.69 h 3.512 l -3.507,-4.857 v -11.35 z" />
            <path
               style="fill:#008877;fill-rule:evenodd"
               inkscape:connector-curvature="0"
               id="path840"
               d="m 437.986,16.083 0.122,0.096 8.911,9.883 0.023,-2.215 0.024,-0.139 0.065,-0.126 0.1,-0.099 0.126,-0.064 0.14,-0.022 h 4.291 0.041 0.04 0.041 0.04 l 0.041,0.001 h 0.04 0.04 l 0.04,0.001 h 0.04 0.04 l 0.04,10e-4 0.04,0.001 h 0.04 l 0.039,0.001 0.04,10e-4 0.039,0.001 0.04,0.001 0.04,10e-4 0.039,0.001 0.039,0.001 0.039,10e-4 0.04,0.001 0.038,0.001 0.04,10e-4 0.038,0.002 0.039,10e-4 0.039,0.002 0.039,10e-4 0.039,0.002 0.038,10e-4 0.039,0.002 0.038,0.002 0.038,0.002 0.039,0.001 0.038,0.002 0.038,0.003 0.038,0.001 0.038,0.002 0.038,0.003 0.038,0.002 0.038,0.002 0.038,0.003 0.037,0.002 0.038,0.003 0.038,0.002 0.037,0.003 0.038,0.003 0.037,0.002 0.038,0.003 0.037,0.003 0.037,0.003 0.037,0.003 0.037,0.003 0.037,0.004 0.037,0.003 0.037,0.003 0.037,0.004 0.036,0.003 0.037,0.004 0.036,0.003 0.037,0.004 0.036,0.004 0.037,0.003 0.036,0.004 0.036,0.004 0.036,0.004 0.036,0.004 0.036,0.005 0.036,0.004 0.036,0.004 0.036,0.005 0.036,0.004 0.035,0.005 0.036,0.004 0.035,0.005 0.036,0.005 0.035,0.005 0.036,0.005 0.035,0.005 0.035,0.005 0.035,0.005 0.036,0.005 0.035,0.006 0.034,0.005 0.035,0.005 0.035,0.006 0.035,0.006 0.034,0.005 0.035,0.006 0.035,0.006 0.034,0.006 0.034,0.006 0.035,0.006 0.034,0.006 0.034,0.007 0.034,0.006 0.034,0.006 0.035,0.007 0.033,0.007 0.034,0.006 0.034,0.007 0.034,0.007 0.033,0.007 0.034,0.007 0.033,0.008 0.034,0.007 0.033,0.007 0.034,0.007 0.033,0.008 0.033,0.008 0.033,0.007 0.033,0.008 0.033,0.008 0.033,0.008 0.033,0.008 0.033,0.008 0.032,0.008 0.033,0.009 0.033,0.008 0.032,0.009 0.033,0.008 0.032,0.009 0.033,0.009 0.032,0.009 0.032,0.009 0.032,0.009 0.032,0.009 0.032,0.009 0.032,0.01 0.032,0.009 0.032,0.01 0.031,0.009 0.032,0.01 0.031,0.01 0.032,0.01 0.031,0.01 0.032,0.01 0.031,0.01 0.031,0.011 0.031,0.01 0.031,0.011 0.031,0.01 0.031,0.011 0.031,0.011 0.031,0.011 0.031,0.011 0.031,0.011 0.03,0.012 0.031,0.011 0.03,0.012 0.03,0.011 0.031,0.012 0.03,0.011 0.03,0.013 0.03,0.011 0.03,0.012 0.03,0.013 0.03,0.012 0.03,0.012 0.03,0.013 0.03,0.013 0.029,0.013 0.03,0.012 0.029,0.014 0.03,0.012 0.029,0.014 0.029,0.013 0.029,0.014 0.03,0.013 0.029,0.014 0.029,0.014 0.029,0.013 0.028,0.014 0.029,0.014 0.029,0.014 0.029,0.015 0.028,0.014 0.029,0.015 0.028,0.014 0.028,0.015 0.029,0.015 0.028,0.015 0.028,0.015 0.028,0.016 0.028,0.015 0.028,0.015 0.027,0.016 0.028,0.016 0.028,0.016 0.027,0.016 0.028,0.016 0.028,0.016 0.027,0.016 0.027,0.016 0.028,0.017 0.027,0.017 0.027,0.016 0.027,0.017 0.026,0.018 0.027,0.017 0.027,0.017 0.027,0.017 0.026,0.018 0.027,0.017 0.026,0.018 0.027,0.018 0.026,0.018 0.026,0.018 0.026,0.019 0.026,0.018 0.026,0.018 0.026,0.019 0.026,0.019 0.026,0.018 0.026,0.019 0.025,0.02 0.026,0.019 0.025,0.019 0.026,0.02 0.025,0.019 0.025,0.02 0.025,0.02 0.025,0.02 0.025,0.02 0.025,0.02 0.025,0.021 0.025,0.02 0.024,0.021 0.025,0.021 0.024,0.021 0.025,0.021 0.024,0.021 0.024,0.021 0.025,0.021 0.023,0.022 0.025,0.021 0.024,0.022 0.023,0.022 0.024,0.022 0.024,0.022 0.023,0.023 0.024,0.022 0.023,0.023 0.023,0.022 0.024,0.023 0.023,0.023 0.023,0.023 0.023,0.023 0.023,0.024 0.023,0.023 0.023,0.024 0.022,0.024 0.023,0.024 0.022,0.023 0.023,0.025 0.022,0.024 0.022,0.024 0.022,0.024 0.022,0.025 0.022,0.024 0.021,0.024 0.022,0.025 0.021,0.024 0.022,0.025 0.021,0.025 0.021,0.025 0.021,0.025 0.021,0.025 0.021,0.025 0.021,0.025 0.021,0.025 0.02,0.026 0.021,0.025 0.021,0.026 0.02,0.025 0.02,0.026 0.021,0.026 0.02,0.026 0.02,0.026 0.02,0.026 0.02,0.026 0.02,0.026 0.019,0.026 0.02,0.027 0.02,0.026 0.019,0.027 0.019,0.027 0.02,0.026 0.019,0.027 0.019,0.027 0.019,0.027 0.019,0.027 0.019,0.027 0.019,0.027 0.018,0.028 0.019,0.027 0.018,0.028 0.019,0.027 0.018,0.027 0.018,0.028 0.018,0.028 0.019,0.028 0.017,0.028 0.019,0.028 0.017,0.028 0.018,0.028 0.018,0.029 0.017,0.028 0.018,0.028 0.017,0.029 0.017,0.029 0.017,0.028 0.017,0.029 0.017,0.029 0.017,0.029 0.017,0.029 0.017,0.029 0.017,0.029 0.016,0.03 0.017,0.029 0.016,0.03 0.016,0.029 0.017,0.03 0.016,0.029 0.016,0.03 0.016,0.03 0.016,0.03 0.015,0.03 0.016,0.03 0.016,0.03 0.015,0.031 0.016,0.03 0.015,0.03 0.015,0.031 0.015,0.03 0.015,0.031 0.015,0.031 0.015,0.031 0.015,0.031 0.015,0.031 0.014,0.03 0.015,0.032 0.015,0.031 0.014,0.032 0.014,0.031 0.014,0.031 0.014,0.032 0.014,0.032 0.014,0.031 0.014,0.032 0.014,0.032 0.014,0.032 0.013,0.032 0.014,0.032 0.013,0.032 0.013,0.032 0.014,0.033 0.013,0.032 0.013,0.033 0.013,0.032 0.013,0.033 0.012,0.033 0.013,0.033 0.013,0.032 0.012,0.033 0.013,0.034 0.012,0.033 0.012,0.033 0.013,0.033 0.012,0.034 0.012,0.033 0.012,0.034 0.012,0.033 0.011,0.034 0.012,0.034 0.012,0.034 0.011,0.034 0.011,0.034 0.012,0.034 0.011,0.034 0.011,0.034 0.011,0.034 0.011,0.035 0.011,0.035 0.011,0.034 0.011,0.035 0.01,0.035 0.011,0.034 0.01,0.035 0.011,0.035 0.01,0.035 0.01,0.035 0.01,0.036 0.01,0.035 0.01,0.035 0.01,0.036 0.01,0.035 0.009,0.036 0.01,0.036 0.01,0.035 0.009,0.036 0.009,0.036 0.009,0.036 0.01,0.036 0.009,0.036 0.009,0.036 0.009,0.037 0.008,0.036 0.009,0.037 0.009,0.036 0.008,0.037 0.009,0.036 0.008,0.037 0.009,0.037 0.008,0.037 0.008,0.037 0.008,0.037 0.008,0.038 0.008,0.037 0.008,0.037 0.007,0.037 0.008,0.038 0.008,0.038 0.007,0.037 0.007,0.038 0.008,0.038 0.007,0.038 0.007,0.038 0.007,0.037 0.007,0.039 0.006,0.038 0.008,0.038 0.006,0.039 0.007,0.038 0.006,0.039 0.007,0.038 0.006,0.039 0.006,0.039 0.006,0.038 0.007,0.039 0.006,0.039 0.005,0.039 0.006,0.039 0.006,0.04 0.006,0.039 0.005,0.039 0.006,0.04 0.005,0.039 0.005,0.04 0.006,0.039 0.005,0.04 0.005,0.04 0.005,0.04 0.005,0.04 0.005,0.04 0.004,0.04 0.005,0.04 0.005,0.041 0.004,0.04 0.005,0.041 0.004,0.04 0.004,0.041 0.004,0.041 0.004,0.04 0.004,0.041 0.004,0.041 0.004,0.041 0.004,0.041 0.003,0.041 0.004,0.042 0.003,0.041 0.004,0.042 0.003,0.041 0.003,0.042 0.003,0.041 0.003,0.042 0.003,0.042 0.003,0.042 0.003,0.042 0.003,0.042 0.002,0.042 0.003,0.042 0.002,0.042 0.003,0.042 0.002,0.043 0.002,0.042 0.002,0.043 0.002,0.043 0.002,0.042 0.002,0.043 0.002,0.043 0.002,0.043 10e-4,0.043 0.002,0.043 0.001,0.044 0.002,0.043 10e-4,0.043 10e-4,0.044 0.001,0.043 10e-4,0.044 0.001,0.043 10e-4,0.044 10e-4,0.044 0.001,0.044 v 0.044 l 10e-4,0.044 v 0.044 l 0.001,0.044 v 0.045 0.044 0.045 0.044 0.047 0.046 0.047 0.046 l -0.001,0.047 v 0.046 l -10e-4,0.046 v 0.046 l -0.001,0.046 -10e-4,0.046 -10e-4,0.046 -0.001,0.046 -10e-4,0.045 -0.001,0.046 -0.002,0.045 -0.001,0.046 -10e-4,0.045 -0.002,0.045 -0.002,0.045 -10e-4,0.045 -0.002,0.045 -0.002,0.045 -0.002,0.045 -0.002,0.045 -0.002,0.044 -0.002,0.045 -0.003,0.044 -0.002,0.045 -0.003,0.044 -0.002,0.045 -0.003,0.043 -0.003,0.045 -0.003,0.044 -0.003,0.044 -0.003,0.043 -0.003,0.044 -0.003,0.044 -0.003,0.043 -0.004,0.044 -0.003,0.043 -0.004,0.043 -0.003,0.044 -0.004,0.043 -0.004,0.043 -0.004,0.043 -0.004,0.043 -0.004,0.043 -0.004,0.042 -0.004,0.043 -0.005,0.043 -0.004,0.042 -0.005,0.042 -0.005,0.043 -0.004,0.042 -0.005,0.042 -0.005,0.042 -0.005,0.042 -0.005,0.042 -0.005,0.042 -0.006,0.041 -0.005,0.042 -0.005,0.042 -0.006,0.041 -0.005,0.041 -0.006,0.042 -0.006,0.041 -0.006,0.041 -0.006,0.041 -0.006,0.041 -0.006,0.041 -0.007,0.041 -0.006,0.041 -0.006,0.04 -0.007,0.041 -0.007,0.04 -0.006,0.041 -0.007,0.04 -0.007,0.04 -0.007,0.04 -0.007,0.04 -0.007,0.04 -0.007,0.04 -0.007,0.04 -0.008,0.04 -0.007,0.039 -0.008,0.04 -0.008,0.039 -0.008,0.04 -0.007,0.039 -0.008,0.039 -0.008,0.039 -0.009,0.039 -0.008,0.039 -0.008,0.039 -0.009,0.039 -0.008,0.039 -0.009,0.038 -0.008,0.039 -0.009,0.038 -0.009,0.039 -0.009,0.038 -0.009,0.038 -0.009,0.038 -0.009,0.038 -0.01,0.038 -0.009,0.038 -0.009,0.038 -0.01,0.037 -0.01,0.038 -0.01,0.037 -0.009,0.038 -0.01,0.037 -0.011,0.038 -0.01,0.037 -0.01,0.037 -0.01,0.037 -0.01,0.037 -0.011,0.037 -0.011,0.037 -0.01,0.036 -0.011,0.037 -0.011,0.036 -0.011,0.037 -0.011,0.036 -0.011,0.037 -0.011,0.036 -0.011,0.036 -0.012,0.036 -0.012,0.036 -0.011,0.035 -0.012,0.036 -0.012,0.036 -0.011,0.036 -0.012,0.035 -0.012,0.035 -0.013,0.036 -0.012,0.035 -0.012,0.035 -0.013,0.035 -0.012,0.035 -0.013,0.035 -0.012,0.035 -0.013,0.035 -0.013,0.034 -0.013,0.035 -0.013,0.034 -0.013,0.035 -0.013,0.034 -0.014,0.034 -0.013,0.034 -0.014,0.034 -0.014,0.034 -0.013,0.034 -0.014,0.034 -0.014,0.034 -0.014,0.033 -0.014,0.034 -0.014,0.033 -0.014,0.034 -0.015,0.033 -0.014,0.033 -0.015,0.034 -0.014,0.032 -0.015,0.033 -0.015,0.033 -0.015,0.033 -0.015,0.033 -0.015,0.032 -0.015,0.033 -0.015,0.032 -0.016,0.032 -0.015,0.033 -0.015,0.032 -0.016,0.032 -0.016,0.032 -0.016,0.032 -0.016,0.032 -0.016,0.031 -0.016,0.032 -0.016,0.032 -0.016,0.031 -0.017,0.031 -0.016,0.032 -0.017,0.031 -0.017,0.031 -0.016,0.031 -0.017,0.031 -0.017,0.031 -0.017,0.031 -0.017,0.031 -0.017,0.03 -0.018,0.031 -0.017,0.03 -0.018,0.031 -0.017,0.03 -0.018,0.03 -0.018,0.03 -0.018,0.03 -0.017,0.03 -0.019,0.03 -0.018,0.03 -0.018,0.029 -0.018,0.03 -0.019,0.029 -0.018,0.03 -0.019,0.029 -0.019,0.029 -0.018,0.029 -0.019,0.029 -0.019,0.029 -0.019,0.029 -0.02,0.029 -0.019,0.028 -0.019,0.029 -0.02,0.028 -0.019,0.029 -0.02,0.028 -0.019,0.028 -0.02,0.029 -0.02,0.028 -0.02,0.027 -0.021,0.028 -0.02,0.028 -0.02,0.028 -0.02,0.028 -0.021,0.027 -0.02,0.027 -0.021,0.028 -0.021,0.027 -0.02,0.027 -0.021,0.027 -0.021,0.027 -0.022,0.027 -0.021,0.027 -0.021,0.027 -0.022,0.026 -0.021,0.027 -0.022,0.026 -0.021,0.026 -0.022,0.027 -0.022,0.026 -0.022,0.026 -0.022,0.026 -0.022,0.026 -0.022,0.026 -0.023,0.025 -0.022,0.026 -0.022,0.025 -0.023,0.026 -0.023,0.025 -0.022,0.026 -0.023,0.025 -0.023,0.025 -0.023,0.025 -0.023,0.025 -0.024,0.025 -0.023,0.024 -0.024,0.025 -0.024,0.025 -0.024,0.025 -0.023,0.024 -0.025,0.024 -0.023,0.024 -0.025,0.024 -0.024,0.024 -0.025,0.024 -0.024,0.023 -0.025,0.024 -0.024,0.023 -0.025,0.023 -0.025,0.023 -0.025,0.023 -0.025,0.023 -0.025,0.023 -0.025,0.022 -0.025,0.022 -0.025,0.023 -0.026,0.022 -0.026,0.022 -0.025,0.022 -0.026,0.021 -0.026,0.022 -0.026,0.022 -0.026,0.021 -0.026,0.021 -0.026,0.021 -0.026,0.021 -0.026,0.021 -0.027,0.02 -0.026,0.021 -0.026,0.02 -0.027,0.021 -0.027,0.02 -0.027,0.02 -0.027,0.02 -0.027,0.019 -0.027,0.02 -0.027,0.02 -0.027,0.019 -0.027,0.019 -0.028,0.019 -0.027,0.019 -0.028,0.019 -0.027,0.019 -0.028,0.018 -0.028,0.019 -0.028,0.018 -0.028,0.019 -0.028,0.018 -0.028,0.018 -0.028,0.017 -0.029,0.018 -0.028,0.018 -0.028,0.017 -0.029,0.017 -0.029,0.018 -0.028,0.017 -0.029,0.017 -0.029,0.016 -0.029,0.017 -0.029,0.017 -0.029,0.016 -0.029,0.017 -0.029,0.016 -0.03,0.016 -0.029,0.016 -0.03,0.016 -0.029,0.016 -0.03,0.016 -0.03,0.015 -0.03,0.015 -0.03,0.015 -0.03,0.016 -0.029,0.015 -0.031,0.015 -0.03,0.014 -0.03,0.015 -0.031,0.015 -0.03,0.014 -0.03,0.015 -0.031,0.014 -0.031,0.014 -0.031,0.014 -0.03,0.014 -0.031,0.014 -0.031,0.013 -0.031,0.014 -0.032,0.013 -0.031,0.013 -0.031,0.014 -0.032,0.013 -0.031,0.013 -0.032,0.013 -0.031,0.012 -0.032,0.013 -0.031,0.012 -0.032,0.013 -0.032,0.012 -0.032,0.012 -0.032,0.013 -0.032,0.012 -0.033,0.011 -0.032,0.012 -0.032,0.012 -0.033,0.011 -0.032,0.012 -0.033,0.011 -0.032,0.011 -0.033,0.012 -0.033,0.011 -0.033,0.011 -0.033,0.01 -0.033,0.011 -0.033,0.011 -0.033,0.01 -0.033,0.011 -0.033,0.01 -0.034,0.01 -0.033,0.01 -0.034,0.01 -0.034,0.01 -0.033,0.01 -0.034,0.01 -0.034,0.009 -0.034,0.01 -0.034,0.009 -0.034,0.01 -0.034,0.009 -0.034,0.009 -0.035,0.009 -0.034,0.009 -0.034,0.009 -0.035,0.008 -0.034,0.009 -0.035,0.009 -0.035,0.008 -0.035,0.009 -0.035,0.008 -0.035,0.008 -0.035,0.008 -0.034,0.008 -0.036,0.008 -0.035,0.008 -0.035,0.007 -0.036,0.008 -0.035,0.007 -0.036,0.008 -0.035,0.007 -0.036,0.007 -0.036,0.008 -0.036,0.007 -0.035,0.007 -0.036,0.007 -0.036,0.006 -0.037,0.007 -0.036,0.007 -0.036,0.006 -0.036,0.007 -0.037,0.006 -0.036,0.007 -0.037,0.006 -0.036,0.006 -0.037,0.006 -0.037,0.006 -0.037,0.006 -0.037,0.006 -0.037,0.005 -0.037,0.006 -0.037,0.006 -0.037,0.005 -0.038,0.005 -0.037,0.006 -0.037,0.005 -0.038,0.005 -0.037,0.005 -0.038,0.005 -0.038,0.005 -0.038,0.005 -0.038,0.005 -0.037,0.004 -0.038,0.005 -0.039,0.004 -0.038,0.005 -0.038,0.004 -0.038,0.004 -0.039,0.005 -0.038,0.004 -0.039,0.004 -0.038,0.004 -0.039,0.004 -0.039,0.003 -0.039,0.004 -0.039,0.004 -0.039,0.004 -0.039,0.003 -0.039,0.004 -0.039,0.003 -0.039,0.003 -0.039,0.004 -0.04,0.003 -0.04,0.003 -0.039,0.003 -0.04,0.003 -0.039,0.003 -0.04,0.003 -0.04,0.003 -0.04,0.002 -0.04,0.003 -0.04,0.002 -0.04,0.003 -0.041,0.003 -0.04,0.002 -0.04,0.002 -0.041,0.003 -0.04,0.002 -0.041,0.002 -0.041,0.002 -0.041,0.002 -0.04,0.002 -0.041,0.002 -0.041,0.001 -0.041,0.002 -0.041,0.002 -0.042,10e-4 -0.041,0.002 -0.041,0.002 -0.042,10e-4 -0.041,10e-4 -0.042,0.002 -0.042,10e-4 -0.041,0.001 -0.042,10e-4 -0.042,0.002 h -0.042 l -0.042,10e-4 -0.042,10e-4 -0.042,0.001 -0.042,10e-4 -0.043,10e-4 h -0.042 l -0.043,0.001 -0.042,10e-4 h -0.043 -0.043 l -0.042,10e-4 h -0.043 -0.043 l -0.043,0.001 h -0.043 -0.044 -0.043 -0.043 -3.668 l -0.122,-0.017 -0.114,-0.049 -9.697,-5.909 -0.116,-0.101 -0.076,-0.135 -0.026,-0.152 V 32.69 l 0.022,-0.141 0.065,-0.126 0.101,-0.101 0.126,-0.065 0.141,-0.022 h 2.623 l -2.986,-4.136 -0.064,-0.126 -0.022,-0.14 v -11.35 l 0.026,-0.153 0.077,-0.135 0.118,-0.102 0.145,-0.056 0.156,-0.003 z m -0.216,11.75 3.507,4.857 h -3.512 v 7.702 l 9.696,5.908 h 3.668 0.043 0.042 0.043 0.042 0.043 0.042 l 0.043,-10e-4 h 0.042 0.042 l 0.042,-10e-4 h 0.042 l 0.042,-0.001 0.042,-10e-4 0.041,-10e-4 h 0.042 l 0.041,-0.001 0.042,-10e-4 0.041,-10e-4 0.042,-0.001 0.041,-10e-4 0.041,-10e-4 0.041,-0.001 0.041,-10e-4 0.041,-0.002 0.041,-10e-4 0.041,-0.002 0.04,-10e-4 0.041,-0.002 0.041,-0.001 0.04,-0.002 0.04,-0.002 0.041,-10e-4 0.039,-0.002 0.041,-0.002 0.04,-0.002 0.04,-0.002 0.039,-0.002 0.04,-0.002 0.04,-0.003 0.04,-0.002 0.039,-0.002 0.039,-0.003 0.04,-0.002 0.039,-0.003 0.04,-0.002 0.038,-0.003 0.04,-0.003 0.038,-0.002 0.04,-0.003 0.038,-0.003 0.039,-0.003 0.039,-0.003 0.038,-0.003 0.039,-0.004 0.038,-0.003 0.039,-0.003 0.038,-0.004 0.038,-0.003 0.038,-0.004 0.038,-0.003 0.038,-0.004 0.037,-0.004 0.038,-0.003 0.038,-0.004 0.038,-0.004 0.037,-0.004 0.038,-0.004 0.037,-0.005 0.037,-0.004 0.037,-0.004 0.037,-0.004 0.037,-0.005 0.037,-0.005 0.037,-0.004 0.037,-0.005 0.037,-0.005 0.037,-0.005 0.036,-0.005 0.036,-0.005 0.037,-0.004 0.036,-0.006 0.036,-0.005 0.036,-0.005 0.036,-0.006 0.036,-0.005 0.036,-0.006 0.036,-0.005 0.036,-0.006 0.036,-0.006 0.035,-0.006 0.035,-0.005 0.036,-0.006 0.035,-0.007 0.036,-0.006 0.034,-0.006 0.036,-0.006 0.035,-0.007 0.035,-0.006 0.034,-0.007 0.035,-0.007 0.035,-0.006 0.034,-0.007 0.035,-0.007 0.035,-0.007 0.034,-0.007 0.034,-0.007 0.034,-0.008 0.034,-0.007 0.034,-0.007 0.034,-0.008 0.034,-0.007 0.034,-0.008 0.034,-0.008 0.033,-0.008 0.034,-0.008 0.033,-0.008 0.034,-0.008 0.033,-0.008 0.033,-0.009 0.033,-0.008 0.034,-0.008 0.032,-0.009 0.033,-0.008 0.033,-0.009 0.033,-0.009 0.032,-0.009 0.033,-0.009 0.033,-0.009 0.032,-0.01 0.032,-0.009 0.032,-0.009 0.033,-0.01 0.032,-0.009 0.032,-0.01 0.032,-0.009 0.032,-0.01 0.031,-0.01 0.032,-0.01 0.032,-0.01 0.031,-0.011 0.031,-0.01 0.032,-0.01 0.031,-0.011 0.031,-0.011 0.031,-0.01 0.031,-0.011 0.031,-0.011 0.031,-0.011 0.031,-0.011 0.031,-0.011 0.031,-0.012 0.03,-0.011 0.031,-0.011 0.03,-0.012 0.03,-0.012 0.03,-0.012 0.031,-0.011 0.03,-0.013 0.03,-0.012 0.029,-0.012 0.03,-0.012 0.03,-0.013 0.03,-0.012 0.029,-0.013 0.03,-0.012 0.029,-0.013 0.03,-0.013 0.029,-0.013 0.029,-0.013 0.029,-0.014 0.029,-0.013 0.029,-0.013 0.029,-0.014 0.029,-0.013 0.028,-0.014 0.029,-0.014 0.028,-0.014 0.029,-0.014 0.028,-0.015 0.029,-0.014 0.028,-0.014 0.028,-0.015 0.028,-0.014 0.028,-0.015 0.028,-0.015 0.028,-0.015 0.027,-0.015 0.028,-0.015 0.027,-0.015 0.028,-0.016 0.027,-0.015 0.028,-0.016 0.027,-0.016 0.027,-0.015 0.027,-0.016 0.027,-0.016 0.027,-0.016 0.027,-0.017 0.027,-0.016 0.026,-0.017 0.027,-0.017 0.026,-0.016 0.027,-0.017 0.026,-0.017 0.026,-0.017 0.026,-0.017 0.026,-0.018 0.026,-0.017 0.026,-0.018 0.026,-0.018 0.026,-0.017 0.026,-0.018 0.025,-0.018 0.026,-0.019 0.025,-0.018 0.026,-0.018 0.025,-0.018 0.025,-0.019 0.025,-0.019 0.025,-0.019 0.025,-0.019 0.025,-0.019 0.025,-0.019 0.025,-0.02 0.024,-0.019 0.025,-0.02 0.024,-0.019 0.025,-0.02 0.024,-0.02 0.024,-0.02 0.025,-0.02 0.024,-0.021 0.024,-0.02 0.024,-0.021 0.023,-0.02 0.024,-0.021 0.024,-0.021 0.023,-0.021 0.024,-0.022 0.023,-0.021 0.024,-0.021 0.023,-0.022 0.023,-0.022 0.023,-0.022 0.023,-0.022 0.023,-0.022 0.023,-0.022 0.023,-0.022 0.023,-0.023 0.022,-0.023 0.023,-0.022 0.022,-0.023 0.022,-0.023 0.023,-0.023 0.022,-0.024 0.022,-0.023 0.022,-0.024 0.022,-0.023 0.022,-0.024 0.022,-0.024 0.022,-0.024 0.021,-0.024 0.022,-0.024 0.021,-0.024 0.021,-0.024 0.022,-0.024 0.021,-0.025 0.021,-0.024 0.021,-0.025 0.021,-0.024 0.021,-0.025 0.021,-0.025 0.02,-0.025 0.021,-0.025 0.02,-0.025 0.021,-0.025 0.02,-0.026 0.02,-0.025 0.02,-0.025 0.02,-0.026 0.021,-0.026 0.019,-0.025 0.02,-0.026 0.02,-0.026 0.019,-0.026 0.02,-0.026 0.019,-0.026 0.02,-0.026 0.019,-0.027 0.02,-0.026 0.018,-0.027 0.02,-0.026 0.019,-0.027 0.018,-0.027 0.019,-0.027 0.019,-0.027 0.018,-0.026 0.019,-0.028 0.018,-0.027 0.019,-0.027 0.018,-0.027 0.018,-0.028 0.018,-0.028 0.018,-0.027 0.018,-0.028 0.018,-0.028 0.018,-0.028 0.017,-0.028 0.018,-0.028 0.017,-0.028 0.018,-0.028 0.017,-0.028 0.017,-0.029 0.017,-0.028 0.017,-0.029 0.017,-0.029 0.017,-0.029 0.017,-0.028 0.017,-0.029 0.016,-0.029 0.017,-0.029 0.016,-0.03 0.017,-0.029 0.016,-0.029 0.016,-0.03 0.016,-0.029 0.016,-0.03 0.016,-0.03 0.016,-0.029 0.015,-0.03 0.016,-0.031 0.016,-0.03 0.016,-0.03 0.015,-0.03 0.015,-0.03 0.015,-0.031 0.015,-0.03 0.015,-0.031 0.015,-0.03 0.015,-0.031 0.015,-0.031 0.015,-0.031 0.014,-0.031 0.015,-0.031 0.015,-0.032 0.014,-0.031 0.014,-0.031 0.014,-0.032 0.015,-0.031 0.014,-0.032 0.013,-0.032 0.014,-0.032 0.014,-0.032 0.014,-0.032 0.013,-0.032 0.014,-0.032 0.013,-0.032 0.013,-0.032 0.014,-0.033 0.013,-0.032 0.013,-0.033 0.013,-0.033 0.013,-0.033 0.013,-0.032 0.012,-0.033 0.013,-0.033 0.013,-0.033 0.012,-0.034 0.013,-0.033 0.012,-0.034 0.012,-0.033 0.012,-0.033 0.012,-0.034 0.012,-0.034 0.012,-0.034 0.012,-0.034 0.011,-0.034 0.012,-0.034 0.011,-0.034 0.012,-0.034 0.011,-0.035 0.012,-0.034 0.011,-0.035 0.011,-0.034 0.011,-0.035 0.011,-0.035 0.01,-0.035 0.012,-0.035 0.01,-0.035 0.011,-0.035 0.01,-0.035 0.011,-0.036 0.01,-0.035 0.01,-0.036 0.01,-0.035 0.01,-0.036 0.01,-0.035 0.01,-0.036 0.01,-0.036 0.01,-0.036 0.009,-0.036 0.01,-0.037 0.009,-0.036 0.009,-0.036 0.01,-0.037 0.009,-0.036 0.009,-0.037 0.009,-0.037 0.009,-0.036 0.009,-0.037 0.009,-0.037 0.008,-0.037 0.009,-0.037 0.008,-0.038 0.009,-0.037 0.008,-0.038 0.008,-0.037 0.009,-0.038 0.008,-0.037 0.008,-0.038 0.007,-0.038 0.008,-0.038 0.008,-0.038 0.008,-0.038 0.007,-0.038 0.008,-0.039 0.007,-0.038 0.008,-0.038 0.007,-0.039 0.007,-0.039 0.007,-0.039 0.007,-0.038 0.006,-0.039 0.007,-0.039 0.007,-0.039 0.007,-0.039 0.006,-0.04 0.007,-0.039 0.006,-0.04 0.006,-0.039 0.006,-0.04 0.006,-0.039 0.007,-0.04 0.005,-0.04 0.006,-0.04 0.006,-0.04 0.005,-0.04 0.006,-0.04 0.005,-0.04 0.006,-0.041 0.005,-0.04 0.005,-0.041 0.006,-0.04 0.005,-0.041 0.005,-0.041 0.005,-0.041 0.004,-0.041 0.005,-0.041 0.005,-0.041 0.004,-0.042 0.004,-0.041 0.005,-0.041 0.004,-0.042 0.004,-0.041 0.005,-0.042 0.003,-0.042 0.004,-0.042 0.004,-0.042 0.004,-0.042 0.004,-0.042 0.003,-0.042 0.004,-0.043 0.003,-0.042 0.004,-0.042 0.003,-0.043 0.003,-0.043 0.003,-0.043 0.003,-0.042 0.003,-0.043 0.002,-0.044 0.003,-0.043 0.003,-0.043 0.003,-0.043 0.002,-0.043 0.002,-0.044 0.003,-0.043 0.002,-0.044 0.002,-0.044 0.002,-0.044 0.002,-0.043 0.002,-0.044 0.002,-0.044 10e-4,-0.045 0.002,-0.044 10e-4,-0.044 0.002,-0.044 0.001,-0.045 10e-4,-0.045 0.002,-0.044 10e-4,-0.045 0.001,-0.045 v -0.045 l 10e-4,-0.045 0.001,-0.045 10e-4,-0.045 v -0.045 l 10e-4,-0.046 v -0.045 -0.046 l 0.001,-0.045 V 34.906 34.86 34.816 34.773 l -0.001,-0.044 v -0.043 -0.044 l -10e-4,-0.043 v -0.043 l -10e-4,-0.043 -0.001,-0.043 v -0.043 l -10e-4,-0.043 -0.001,-0.043 -10e-4,-0.043 -0.001,-0.042 -10e-4,-0.043 -0.002,-0.042 -10e-4,-0.043 -0.002,-0.042 -10e-4,-0.042 -0.001,-0.042 -0.002,-0.043 -0.002,-0.041 -0.002,-0.042 -0.002,-0.042 -0.002,-0.042 -0.002,-0.042 -0.002,-0.041 -0.002,-0.042 -0.003,-0.041 -0.002,-0.041 -0.003,-0.042 -0.002,-0.04 -0.003,-0.042 -0.002,-0.041 -0.003,-0.041 -0.003,-0.04 -0.003,-0.041 -0.003,-0.041 -0.003,-0.04 -0.004,-0.041 -0.003,-0.04 -0.003,-0.041 -0.003,-0.04 -0.004,-0.04 -0.004,-0.04 -0.004,-0.04 -0.003,-0.04 -0.004,-0.04 -0.004,-0.04 -0.004,-0.04 -0.004,-0.039 -0.004,-0.04 -0.005,-0.039 -0.004,-0.039 -0.005,-0.04 -0.004,-0.039 -0.005,-0.039 -0.004,-0.039 -0.005,-0.039 -0.005,-0.039 -0.005,-0.039 -0.005,-0.038 -0.005,-0.039 -0.005,-0.039 -0.006,-0.038 -0.005,-0.039 -0.005,-0.038 -0.006,-0.038 -0.005,-0.038 -0.006,-0.038 -0.006,-0.038 -0.006,-0.038 -0.006,-0.038 -0.006,-0.037 -0.006,-0.038 -0.006,-0.038 -0.006,-0.037 -0.007,-0.038 -0.006,-0.037 -0.006,-0.037 -0.007,-0.037 -0.007,-0.038 -0.006,-0.037 -0.007,-0.036 -0.007,-0.037 -0.007,-0.037 -0.007,-0.037 -0.007,-0.036 -0.007,-0.037 -0.008,-0.036 -0.007,-0.036 -0.007,-0.037 -0.008,-0.036 -0.008,-0.036 -0.007,-0.036 -0.008,-0.036 -0.008,-0.036 -0.008,-0.035 -0.008,-0.036 -0.008,-0.036 -0.008,-0.035 -0.009,-0.036 -0.008,-0.035 -0.009,-0.035 -0.008,-0.036 -0.009,-0.035 -0.008,-0.035 -0.009,-0.035 -0.009,-0.034 -0.009,-0.035 -0.009,-0.035 -0.009,-0.035 -0.009,-0.034 -0.01,-0.034 -0.009,-0.035 -0.009,-0.034 -0.01,-0.034 -0.009,-0.035 -0.01,-0.034 -0.01,-0.034 -0.01,-0.033 -0.01,-0.034 -0.01,-0.034 -0.009,-0.034 -0.011,-0.033 -0.01,-0.034 -0.01,-0.033 -0.011,-0.033 -0.01,-0.034 -0.011,-0.033 -0.011,-0.033 -0.01,-0.033 -0.011,-0.033 -0.011,-0.032 -0.011,-0.033 -0.011,-0.033 -0.011,-0.032 -0.011,-0.033 -0.011,-0.033 -0.012,-0.032 -0.011,-0.032 -0.012,-0.032 -0.011,-0.032 -0.012,-0.032 -0.012,-0.032 -0.012,-0.032 -0.012,-0.032 -0.012,-0.031 -0.012,-0.032 -0.012,-0.031 -0.013,-0.032 -0.012,-0.031 -0.012,-0.032 -0.013,-0.031 -0.012,-0.031 -0.013,-0.031 -0.013,-0.031 -0.013,-0.031 -0.013,-0.031 -0.013,-0.03 -0.013,-0.031 -0.013,-0.03 -0.013,-0.031 -0.014,-0.03 -0.013,-0.03 -0.013,-0.031 -0.014,-0.03 -0.014,-0.03 -0.014,-0.03 -0.013,-0.03 -0.014,-0.029 -0.014,-0.03 -0.014,-0.03 -0.014,-0.029 -0.015,-0.03 -0.014,-0.029 -0.015,-0.029 -0.014,-0.03 -0.014,-0.029 -0.015,-0.029 -0.015,-0.029 -0.015,-0.029 -0.014,-0.029 -0.015,-0.028 -0.015,-0.029 -0.016,-0.028 -0.015,-0.029 -0.015,-0.028 -0.016,-0.029 -0.015,-0.028 -0.016,-0.028 -0.015,-0.028 -0.016,-0.028 -0.016,-0.028 -0.016,-0.028 -0.016,-0.027 -0.016,-0.028 -0.016,-0.028 -0.016,-0.027 -0.016,-0.028 -0.017,-0.027 -0.016,-0.027 -0.017,-0.028 -0.016,-0.027 -0.017,-0.027 -0.017,-0.027 -0.016,-0.027 -0.017,-0.026 -0.017,-0.027 -0.018,-0.026 -0.017,-0.027 -0.017,-0.026 -0.017,-0.027 -0.018,-0.026 -0.017,-0.026 -0.018,-0.027 -0.017,-0.026 -0.018,-0.026 -0.018,-0.025 -0.018,-0.026 -0.018,-0.026 -0.018,-0.025 -0.018,-0.026 -0.018,-0.025 -0.019,-0.026 -0.018,-0.025 -0.019,-0.025 -0.018,-0.026 -0.019,-0.024 -0.019,-0.025 -0.018,-0.025 -0.019,-0.025 -0.019,-0.025 -0.019,-0.024 -0.019,-0.025 -0.019,-0.025 -0.02,-0.024 -0.019,-0.024 -0.02,-0.025 -0.019,-0.024 -0.02,-0.024 -0.02,-0.024 -0.019,-0.024 -0.02,-0.024 -0.02,-0.023 -0.02,-0.024 -0.02,-0.023 -0.021,-0.024 -0.02,-0.023 -0.02,-0.024 -0.021,-0.023 -0.02,-0.023 -0.021,-0.023 -0.021,-0.023 -0.02,-0.023 -0.021,-0.023 -0.021,-0.023 -0.021,-0.022 -0.021,-0.023 -0.021,-0.022 -0.021,-0.022 -0.022,-0.022 -0.021,-0.022 -0.021,-0.022 -0.022,-0.022 -0.022,-0.022 -0.022,-0.021 -0.021,-0.021 -0.022,-0.022 -0.022,-0.021 -0.022,-0.021 -0.022,-0.021 -0.022,-0.02 -0.022,-0.021 -0.022,-0.02 -0.023,-0.021 -0.022,-0.02 -0.023,-0.02 -0.022,-0.02 -0.023,-0.02 -0.023,-0.02 -0.023,-0.019 -0.022,-0.02 -0.023,-0.019 -0.023,-0.02 -0.023,-0.019 -0.024,-0.019 -0.023,-0.019 -0.023,-0.019 -0.023,-0.018 -0.024,-0.019 -0.024,-0.018 -0.023,-0.018 -0.024,-0.019 -0.024,-0.018 -0.023,-0.018 -0.024,-0.018 -0.025,-0.017 -0.023,-0.018 -0.025,-0.018 -0.024,-0.017 -0.024,-0.017 -0.025,-0.017 -0.024,-0.017 -0.024,-0.018 -0.025,-0.016 -0.025,-0.017 -0.025,-0.017 -0.024,-0.016 -0.025,-0.016 -0.025,-0.017 -0.025,-0.016 -0.026,-0.016 -0.024,-0.016 -0.026,-0.016 -0.025,-0.015 -0.026,-0.016 -0.025,-0.016 -0.026,-0.015 -0.025,-0.015 -0.026,-0.015 -0.026,-0.016 -0.026,-0.014 -0.026,-0.015 -0.026,-0.015 -0.026,-0.015 -0.026,-0.014 -0.026,-0.014 -0.027,-0.015 -0.026,-0.014 -0.026,-0.014 -0.027,-0.014 -0.027,-0.014 -0.026,-0.014 -0.027,-0.013 -0.027,-0.014 -0.027,-0.014 -0.027,-0.013 -0.027,-0.013 -0.027,-0.013 -0.027,-0.013 -0.028,-0.013 -0.027,-0.013 -0.027,-0.013 -0.028,-0.012 -0.027,-0.013 -0.028,-0.013 -0.028,-0.012 -0.028,-0.012 -0.027,-0.012 -0.029,-0.013 -0.028,-0.011 -0.027,-0.012 -0.029,-0.012 -0.028,-0.012 -0.029,-0.011 -0.028,-0.012 -0.028,-0.011 -0.029,-0.011 -0.028,-0.012 -0.029,-0.011 -0.029,-0.011 -0.029,-0.01 -0.029,-0.011 -0.029,-0.011 -0.029,-0.01 -0.029,-0.011 -0.029,-0.01 -0.03,-0.011 -0.029,-0.01 -0.03,-0.01 -0.029,-0.01 -0.03,-0.01 -0.029,-0.01 -0.03,-0.01 -0.03,-0.01 -0.03,-0.009 -0.03,-0.009 -0.03,-0.01 -0.03,-0.009 -0.03,-0.009 -0.03,-0.009 -0.031,-0.009 -0.03,-0.009 -0.031,-0.009 -0.031,-0.009 -0.03,-0.009 -0.031,-0.008 -0.031,-0.009 -0.03,-0.008 -0.031,-0.008 -0.032,-0.009 -0.031,-0.008 -0.031,-0.008 -0.031,-0.008 -0.031,-0.008 -0.032,-0.007 -0.031,-0.008 -0.032,-0.008 -0.031,-0.008 -0.032,-0.007 -0.032,-0.007 -0.032,-0.008 -0.032,-0.007 -0.032,-0.007 -0.032,-0.007 -0.032,-0.007 -0.032,-0.007 -0.033,-0.007 -0.032,-0.007 -0.032,-0.006 -0.033,-0.007 -0.033,-0.006 -0.032,-0.007 -0.033,-0.006 -0.033,-0.006 -0.033,-0.006 -0.033,-0.006 -0.033,-0.006 -0.033,-0.006 -0.033,-0.006 -0.034,-0.006 -0.033,-0.006 -0.033,-0.005 -0.034,-0.006 -0.033,-0.005 -0.034,-0.006 -0.034,-0.005 -0.034,-0.005 -0.033,-0.005 -0.035,-0.005 -0.033,-0.005 -0.035,-0.005 -0.034,-0.005 -0.034,-0.005 -0.034,-0.005 -0.035,-0.004 -0.034,-0.005 -0.035,-0.004 -0.034,-0.005 -0.035,-0.004 -0.035,-0.005 -0.035,-0.004 -0.035,-0.004 -0.035,-0.004 -0.035,-0.004 -0.035,-0.004 -0.035,-0.004 -0.036,-0.003 -0.035,-0.004 -0.035,-0.004 -0.036,-0.003 -0.035,-0.004 -0.036,-0.003 -0.036,-0.004 -0.036,-0.003 -0.036,-0.003 -0.036,-0.003 -0.036,-0.004 -0.036,-0.003 -0.036,-0.003 -0.036,-0.003 -0.037,-0.002 -0.036,-0.003 -0.037,-0.003 -0.036,-0.003 -0.037,-0.002 -0.036,-0.003 -0.037,-0.002 -0.037,-0.003 -0.037,-0.002 -0.037,-0.002 -0.037,-0.002 -0.038,-0.002 -0.037,-0.003 -0.037,-0.002 -0.037,-10e-4 -0.038,-0.003 -0.038,-0.001 -0.037,-0.002 -0.038,-0.002 -0.037,-10e-4 -0.039,-0.002 -0.037,-0.002 -0.038,-0.001 -0.039,-10e-4 -0.038,-0.002 -0.038,-10e-4 -0.038,-0.001 -0.038,-0.002 -0.039,-0.001 -0.039,-0.001 -0.038,-10e-4 -0.039,-0.001 -0.038,-10e-4 -0.039,-0.001 -0.039,-0.001 h -0.039 l -0.039,-10e-4 -0.04,-0.001 h -0.039 l -0.039,-0.001 h -0.039 l -0.04,-10e-4 h -0.039 l -0.04,-0.001 h -0.04 -0.039 -0.04 -0.04 -0.04 -0.04 -4.291 l -0.036,3.38 -9.691,-10.749 z" />
          </g>
          <g
             id="g846">
            <path
               style="fill:#008877"
               inkscape:connector-curvature="0"
               id="path844"
               d="m 448.813,27.232 h -1.352 v -3.808 h 5.788 c 3.418,0 6.019,0.973 7.801,2.919 1.783,1.946 2.674,4.785 2.674,8.517 0,3.913 -0.943,6.872 -2.828,8.876 -1.885,2.004 -4.654,3.006 -8.307,3.006 h -5.128 v -1.436 h 1.495 v 0.001 h 3.545 c 6.398,0 9.597,-3.461 9.597,-10.383 0,-3.339 -0.779,-5.851 -2.337,-7.536 -1.558,-1.685 -3.846,-2.528 -6.864,-2.528 h -4.084 z m -0.295,13.16 h -0.762 V 32.69 h 0.762 z" />
          </g>
          <g
             id="g850">
            <path
               style="fill:#008877;fill-rule:evenodd"
               inkscape:connector-curvature="0"
               id="path848"
               d="m 441.277,24.86 5.818,10.731 2.994,4.801 4.932,8.656 1.126,1.126 v -1.592 l -6.958,-11.099 -3.004,-4.793 z" />
          </g>
          <g
             id="g856">
            <path
               style="fill:#ffffff"
               inkscape:connector-curvature="0"
               id="path852"
               d="m 449.018,36.241 c -0.167,-0.487 -0.697,-0.746 -1.183,-0.579 -0.486,0.167 -0.746,0.697 -0.579,1.183 0.167,0.486 0.697,0.745 1.183,0.579 0.486,-0.167 0.746,-0.697 0.579,-1.183 z" />
            <path
               style="fill:#008877;fill-rule:evenodd"
               inkscape:connector-curvature="0"
               id="path854"
               d="m 448.149,35.132 h 0.017 0.018 l 0.017,0.001 0.017,10e-4 0.017,10e-4 0.017,0.001 0.018,0.002 0.017,0.002 0.016,0.002 0.017,0.002 0.017,0.002 0.017,0.003 0.017,0.002 0.017,0.003 0.017,0.004 0.017,0.003 0.016,0.003 0.016,0.004 0.018,0.004 0.015,0.004 0.017,0.005 0.017,0.004 0.016,0.005 0.016,0.005 0.016,0.005 0.017,0.005 0.016,0.005 0.016,0.006 0.015,0.006 0.016,0.006 0.015,0.006 0.017,0.007 0.015,0.006 0.015,0.007 0.016,0.007 0.015,0.007 0.015,0.008 0.016,0.007 0.014,0.008 0.015,0.008 0.015,0.008 0.015,0.008 0.015,0.008 0.014,0.009 0.015,0.009 0.014,0.009 0.014,0.009 0.014,0.009 0.015,0.009 0.013,0.01 0.014,0.01 0.014,0.01 0.013,0.01 0.014,0.01 0.014,0.011 0.012,0.01 0.014,0.011 0.013,0.011 0.013,0.011 0.013,0.011 0.012,0.012 0.013,0.012 0.012,0.011 0.012,0.012 0.012,0.013 0.013,0.012 0.011,0.012 0.012,0.013 0.012,0.013 0.011,0.012 0.012,0.013 0.01,0.014 0.011,0.013 0.011,0.013 0.011,0.014 0.01,0.014 0.011,0.014 0.01,0.014 0.01,0.014 0.01,0.015 0.01,0.014 0.009,0.015 0.01,0.015 0.009,0.015 0.009,0.015 0.008,0.015 0.009,0.016 0.009,0.015 0.008,0.015 0.008,0.016 0.008,0.016 0.008,0.016 0.007,0.016 0.008,0.017 0.007,0.016 0.007,0.017 0.007,0.016 0.007,0.017 0.005,0.017 0.007,0.017 0.006,0.017 0.006,0.017 0.005,0.017 0.006,0.017 0.005,0.018 0.005,0.017 0.004,0.018 0.005,0.017 0.004,0.017 0.003,0.018 0.004,0.017 0.003,0.018 0.004,0.017 0.003,0.017 0.002,0.018 0.003,0.017 0.003,0.018 0.002,0.017 0.002,0.018 10e-4,0.017 0.002,0.018 0.001,0.017 10e-4,0.018 0.001,0.017 10e-4,0.017 v 0.018 l 10e-4,0.017 v 0.017 l -0.002,0.018 v 0.017 0.017 l -0.001,0.017 -10e-4,0.018 -0.001,0.017 -0.002,0.017 -0.002,0.017 -0.002,0.017 -0.002,0.017 -0.002,0.017 -0.003,0.017 -0.003,0.017 -0.002,0.016 -0.003,0.017 -0.004,0.017 -0.003,0.016 -0.004,0.017 -0.004,0.017 -0.004,0.016 -0.005,0.017 -0.004,0.016 -0.005,0.016 -0.005,0.017 -0.005,0.016 -0.005,0.016 -0.006,0.016 -0.005,0.016 -0.006,0.016 -0.007,0.015 -0.005,0.016 -0.007,0.016 -0.007,0.015 -0.006,0.016 -0.007,0.015 -0.007,0.015 -0.008,0.016 -0.007,0.015 -0.008,0.015 -0.008,0.015 -0.008,0.015 -0.008,0.014 -0.009,0.015 -0.008,0.014 -0.009,0.015 -0.008,0.014 -0.009,0.014 -0.01,0.015 -0.01,0.014 -0.009,0.014 -0.01,0.013 -0.01,0.014 -0.01,0.014 -0.01,0.013 -0.01,0.014 -0.012,0.013 -0.01,0.013 -0.011,0.013 -0.012,0.013 -0.011,0.013 -0.011,0.013 -0.012,0.012 -0.012,0.013 -0.012,0.012 -0.012,0.012 -0.012,0.012 -0.012,0.011 -0.013,0.012 -0.012,0.012 -0.013,0.011 -0.013,0.011 -0.014,0.012 -0.013,0.011 -0.013,0.01 -0.014,0.011 -0.014,0.011 -0.014,0.01 -0.015,0.01 -0.013,0.01 -0.015,0.01 -0.015,0.01 -0.014,0.009 -0.015,0.01 -0.014,0.009 -0.015,0.009 -0.016,0.009 -0.016,0.009 -0.015,0.008 -0.015,0.008 -0.016,0.008 -0.017,0.008 -0.015,0.008 -0.017,0.008 -0.015,0.007 -0.017,0.007 -0.017,0.007 -0.017,0.007 -0.016,0.007 -0.017,0.006 -0.017,0.006 -0.017,0.006 -0.017,0.006 -0.018,0.005 -0.017,0.006 -0.016,0.005 -0.018,0.005 -0.017,0.004 -0.018,0.005 -0.018,0.004 -0.016,0.004 -0.018,0.004 -0.017,0.003 -0.018,0.003 -0.017,0.003 -0.018,0.003 -0.018,0.003 -0.017,0.002 -0.017,0.002 -0.018,0.002 -0.017,0.002 -0.018,10e-4 -0.018,0.002 -0.016,10e-4 -0.018,0.001 h -0.017 -0.018 l -0.017,10e-4 -0.017,-10e-4 h -0.017 -0.018 l -0.017,-0.001 -0.017,-10e-4 -0.018,-10e-4 -0.016,-0.001 -0.018,-0.002 -0.017,-0.002 -0.017,-10e-4 -0.017,-0.002 -0.017,-0.003 -0.017,-0.002 -0.017,-0.003 -0.016,-0.003 -0.018,-0.003 -0.016,-0.004 -0.017,-0.003 -0.016,-0.004 -0.017,-0.004 -0.016,-0.004 -0.017,-0.004 -0.016,-0.005 -0.016,-0.005 -0.016,-0.005 -0.017,-0.004 -0.016,-0.006 -0.016,-0.005 -0.016,-0.006 -0.016,-0.006 -0.015,-0.006 -0.016,-0.006 -0.016,-0.007 -0.015,-0.006 -0.015,-0.007 -0.016,-0.007 -0.015,-0.007 -0.016,-0.007 -0.015,-0.008 -0.014,-0.008 -0.016,-0.007 -0.015,-0.008 -0.015,-0.009 -0.014,-0.008 -0.015,-0.009 -0.014,-0.008 -0.014,-0.009 -0.015,-0.009 -0.013,-0.01 -0.015,-0.009 -0.014,-0.01 -0.014,-0.01 -0.013,-0.01 -0.014,-0.01 -0.013,-0.01 -0.014,-0.01 -0.013,-0.011 -0.013,-0.011 -0.013,-0.011 -0.013,-0.011 -0.013,-0.011 -0.013,-0.012 -0.012,-0.011 -0.012,-0.012 -0.012,-0.012 -0.013,-0.012 -0.012,-0.013 -0.012,-0.012 -0.011,-0.013 -0.012,-0.012 -0.011,-0.013 -0.012,-0.013 -0.011,-0.013 -0.011,-0.014 -0.01,-0.013 -0.011,-0.014 -0.011,-0.014 -0.01,-0.014 -0.01,-0.014 -0.011,-0.014 -0.01,-0.014 -0.009,-0.015 -0.01,-0.015 -0.009,-0.014 -0.009,-0.015 -0.009,-0.016 -0.009,-0.015 -0.009,-0.015 -0.008,-0.016 -0.008,-0.015 -0.009,-0.016 -0.007,-0.016 -0.008,-0.016 -0.007,-0.016 -0.008,-0.017 -0.008,-0.016 -0.006,-0.016 -0.007,-0.017 -0.007,-0.017 -0.006,-0.017 -0.006,-0.017 -0.006,-0.017 -0.006,-0.017 -0.006,-0.017 -0.005,-0.017 -0.005,-0.018 -0.005,-0.017 -0.005,-0.017 -0.004,-0.018 -0.004,-0.017 -0.004,-0.017 -0.003,-0.018 -0.004,-0.017 -0.003,-0.018 -0.003,-0.017 -0.003,-0.018 -0.003,-0.017 -0.002,-0.018 -0.002,-0.017 -0.002,-0.017 -0.002,-0.018 -0.001,-0.017 -0.002,-0.018 -10e-4,-0.017 -0.001,-0.017 v -0.018 l -10e-4,-0.017 v -0.018 -0.017 l 10e-4,-0.017 v -0.018 l 0.001,-0.017 10e-4,-0.017 0.001,-0.017 10e-4,-0.017 0.001,-0.018 0.003,-0.017 10e-4,-0.017 0.003,-0.017 0.002,-0.017 0.002,-0.017 0.003,-0.016 0.003,-0.017 0.003,-0.017 0.004,-0.017 0.003,-0.016 0.003,-0.017 0.005,-0.017 0.004,-0.016 0.005,-0.017 0.004,-0.016 0.005,-0.016 0.004,-0.016 0.006,-0.016 0.005,-0.017 0.005,-0.015 0.006,-0.017 0.006,-0.015 0.006,-0.016 0.006,-0.016 0.006,-0.015 0.007,-0.016 0.006,-0.015 0.008,-0.016 0.007,-0.015 0.007,-0.015 0.008,-0.016 0.008,-0.015 0.008,-0.015 0.008,-0.014 0.008,-0.015 0.008,-0.015 0.009,-0.014 0.008,-0.015 0.009,-0.014 0.009,-0.014 0.01,-0.015 0.009,-0.013 0.01,-0.015 0.01,-0.013 0.01,-0.014 0.009,-0.014 0.011,-0.013 0.01,-0.013 0.011,-0.014 0.01,-0.013 0.012,-0.013 0.011,-0.013 0.011,-0.013 0.011,-0.012 0.012,-0.013 0.012,-0.012 0.012,-0.012 0.012,-0.012 0.013,-0.013 0.012,-0.011 0.013,-0.012 0.012,-0.011 0.013,-0.012 0.013,-0.011 0.014,-0.011 0.013,-0.011 0.013,-0.011 0.014,-0.011 0.013,-0.01 0.015,-0.011 0.014,-0.01 0.014,-0.01 0.014,-0.01 0.015,-0.009 0.015,-0.01 0.014,-0.009 0.015,-0.01 0.015,-0.009 0.016,-0.008 0.016,-0.009 0.015,-0.009 0.015,-0.008 0.016,-0.008 0.016,-0.008 0.016,-0.008 0.016,-0.007 0.016,-0.008 0.017,-0.007 0.017,-0.007 0.016,-0.007 0.016,-0.006 0.017,-0.007 0.017,-0.006 0.017,-0.006 0.018,-0.006 0.017,-0.005 0.017,-0.005 0.017,-0.006 0.018,-0.004 0.017,-0.005 0.018,-0.005 0.017,-0.003 0.017,-0.005 0.017,-0.003 0.018,-0.004 0.018,-0.003 0.017,-0.003 0.017,-0.003 0.018,-0.002 0.018,-0.003 0.017,-0.002 0.018,-0.002 0.017,-0.002 0.017,-10e-4 0.018,-0.001 0.017,-10e-4 0.017,-10e-4 0.018,-0.001 h 0.017 0.018 z m -0.027,0.479 -0.012,0.001 h -0.011 -0.011 l -0.012,10e-4 -0.011,10e-4 -0.012,0.001 -0.011,10e-4 -0.012,10e-4 -0.011,0.001 -0.012,0.002 -0.011,0.002 -0.012,0.002 -0.011,0.002 -0.012,0.002 -0.011,0.002 -0.011,0.003 -0.013,0.002 -0.011,0.003 -0.011,0.003 -0.012,0.003 -0.011,0.003 -0.012,0.004 -0.011,0.003 -0.011,0.004 -0.012,0.004 -0.011,0.003 -0.012,0.005 -0.011,0.004 -0.011,0.004 -0.011,0.005 -0.011,0.004 -0.01,0.005 -0.012,0.005 -0.01,0.005 -0.01,0.005 -0.011,0.005 -0.011,0.006 -0.01,0.005 -0.01,0.006 -0.01,0.006 -0.01,0.005 -0.01,0.006 -0.01,0.007 -0.009,0.005 -0.01,0.007 -0.01,0.006 -0.009,0.007 -0.01,0.006 -0.009,0.007 -0.009,0.007 -0.009,0.007 -0.01,0.007 -0.008,0.007 -0.009,0.007 -0.008,0.007 -0.009,0.008 -0.008,0.007 -0.009,0.008 -0.008,0.008 -0.009,0.008 -0.008,0.008 -0.007,0.007 -0.009,0.009 -0.008,0.008 -0.007,0.008 -0.007,0.008 -0.008,0.009 -0.008,0.008 -0.007,0.009 -0.007,0.009 -0.007,0.008 -0.007,0.009 -0.007,0.009 -0.006,0.009 -0.007,0.009 -0.007,0.009 -0.006,0.009 -0.006,0.01 -0.006,0.009 -0.006,0.01 -0.006,0.009 -0.006,0.01 -0.006,0.009 -0.005,0.01 -0.006,0.01 -0.005,0.01 -0.005,0.009 -0.005,0.01 -0.006,0.011 -0.004,0.01 -0.005,0.01 -0.004,0.01 -0.005,0.01 -0.004,0.01 -0.005,0.011 -0.003,0.01 -0.005,0.011 -0.003,0.01 -0.004,0.01 -0.004,0.011 -0.004,0.011 -0.003,0.01 -0.003,0.011 -0.003,0.011 -0.003,0.011 -0.003,0.011 -0.003,0.01 -0.002,0.011 -0.003,0.011 -0.002,0.011 -0.002,0.011 -0.002,0.011 -0.002,0.011 -0.002,0.012 -0.002,0.011 -10e-4,0.011 -0.002,0.011 -10e-4,0.011 -0.001,0.012 -10e-4,0.011 -10e-4,0.011 -0.001,0.012 v 0.011 l -10e-4,0.011 v 0.012 0.011 0.011 0.012 0.011 0.012 l 10e-4,0.011 0.001,0.012 10e-4,0.011 10e-4,0.012 0.001,0.011 10e-4,0.012 0.002,0.011 10e-4,0.012 0.002,0.011 0.002,0.012 0.001,0.011 0.002,0.012 0.003,0.011 0.002,0.012 0.003,0.011 0.003,0.011 0.003,0.012 0.003,0.012 0.003,0.011 0.003,0.012 0.004,0.011 0.004,0.011 0.004,0.012 0.003,0.011 0.004,0.011 0.004,0.012 0.005,0.011 0.005,0.011 0.004,0.01 0.005,0.011 0.005,0.011 0.005,0.011 0.005,0.01 0.005,0.011 0.005,0.01 0.006,0.011 0.006,0.01 0.005,0.01 0.006,0.01 0.006,0.01 0.006,0.01 0.007,0.01 0.006,0.009 0.006,0.01 0.007,0.009 0.006,0.01 0.007,0.009 0.006,0.009 0.007,0.009 0.007,0.009 0.008,0.009 0.007,0.009 0.008,0.009 0.007,0.008 0.007,0.009 0.007,0.008 0.008,0.009 0.008,0.008 0.008,0.008 0.009,0.008 0.007,0.008 0.008,0.007 0.009,0.008 0.008,0.007 0.009,0.008 0.008,0.008 0.008,0.007 0.01,0.007 0.008,0.007 0.008,0.007 0.01,0.007 0.009,0.006 0.008,0.007 0.01,0.006 0.009,0.007 0.009,0.006 0.01,0.006 0.009,0.006 0.009,0.006 0.01,0.006 0.01,0.006 0.009,0.005 0.01,0.005 0.01,0.006 0.01,0.005 0.01,0.005 0.01,0.005 0.01,0.005 0.01,0.005 0.011,0.004 0.009,0.005 0.011,0.004 0.01,0.004 0.011,0.004 0.01,0.004 0.011,0.004 0.01,0.004 0.011,0.004 0.01,0.003 0.011,0.004 0.011,0.003 0.011,0.003 0.01,0.003 0.011,0.003 0.011,0.003 0.011,0.002 0.011,0.003 0.011,0.002 0.011,0.002 0.011,0.002 0.011,0.002 0.011,0.002 0.011,0.002 0.012,10e-4 0.011,0.002 0.011,10e-4 0.012,10e-4 0.011,10e-4 0.011,0.001 h 0.012 l 0.011,10e-4 0.011,10e-4 h 0.011 0.011 0.012 0.012 0.011 l 0.011,-10e-4 h 0.012 l 0.011,-10e-4 0.012,-0.001 0.012,-10e-4 0.01,-10e-4 0.012,-10e-4 0.012,-0.001 0.011,-0.002 0.012,-0.002 0.011,-10e-4 0.012,-0.002 0.012,-0.003 0.011,-0.002 0.011,-0.002 0.012,-0.003 0.012,-0.003 0.011,-0.003 0.011,-0.003 0.012,-0.003 0.011,-0.003 0.012,-0.004 0.011,-0.004 0.011,-0.003 0.012,-0.004 0.011,-0.005 0.011,-0.004 0.012,-0.004 0.01,-0.005 0.012,-0.004 0.01,-0.005 0.011,-0.005 0.011,-0.005 0.01,-0.005 0.011,-0.005 0.01,-0.005 0.01,-0.006 0.011,-0.006 0.009,-0.005 0.011,-0.006 0.009,-0.006 0.01,-0.006 0.01,-0.006 0.01,-0.007 0.009,-0.006 0.01,-0.006 0.01,-0.007 0.009,-0.007 0.009,-0.007 0.009,-0.007 0.009,-0.006 0.009,-0.008 0.009,-0.007 0.008,-0.007 0.009,-0.008 0.008,-0.007 0.009,-0.008 0.008,-0.008 0.009,-0.007 0.008,-0.008 0.007,-0.008 0.009,-0.008 0.007,-0.008 0.008,-0.009 0.007,-0.008 0.008,-0.008 0.008,-0.009 0.007,-0.009 0.007,-0.008 0.007,-0.009 0.006,-0.009 0.007,-0.009 0.007,-0.009 0.007,-0.009 0.006,-0.009 0.007,-0.009 0.006,-0.009 0.005,-0.01 0.007,-0.009 0.006,-0.01 0.006,-0.009 0.005,-0.01 0.006,-0.01 0.005,-0.009 0.006,-0.01 0.004,-0.01 0.006,-0.01 0.005,-0.01 0.005,-0.01 0.005,-0.01 0.004,-0.011 0.005,-0.01 0.003,-0.01 0.005,-0.01 0.004,-0.011 0.004,-0.01 0.004,-0.011 0.004,-0.01 0.003,-0.011 0.004,-0.01 0.003,-0.011 0.003,-0.011 0.004,-0.011 0.003,-0.01 0.002,-0.011 0.004,-0.011 0.002,-0.011 0.002,-0.011 0.002,-0.011 0.003,-0.011 0.002,-0.011 0.002,-0.011 0.001,-0.011 0.003,-0.012 10e-4,-0.011 0.001,-0.011 10e-4,-0.011 0.001,-0.011 10e-4,-0.012 0.002,-0.011 10e-4,-0.011 v -0.012 -0.011 -0.011 l 0.001,-0.012 v -0.011 l -0.001,-0.012 0.001,-0.011 -0.001,-0.011 v -0.012 l -10e-4,-0.011 -0.001,-0.012 -10e-4,-0.011 -10e-4,-0.012 -0.001,-0.012 -0.002,-0.011 -0.002,-0.011 -0.001,-0.012 -0.002,-0.012 -0.002,-0.011 -0.002,-0.011 -0.002,-0.012 -0.002,-0.012 -0.003,-0.011 -0.003,-0.011 -0.003,-0.012 -0.003,-0.011 -0.003,-0.012 -0.004,-0.011 -0.003,-0.012 -0.004,-0.011 -0.004,-0.011 -0.004,-0.012 -0.003,-0.011 -0.005,-0.011 -0.004,-0.012 -0.005,-0.01 -0.005,-0.011 -0.004,-0.011 -0.005,-0.011 -0.005,-0.011 -0.005,-0.01 -0.006,-0.011 -0.005,-0.01 -0.005,-0.011 -0.006,-0.01 -0.006,-0.01 -0.006,-0.01 -0.005,-0.01 -0.006,-0.01 -0.007,-0.009 -0.006,-0.01 -0.006,-0.01 -0.007,-0.009 -0.007,-0.009 -0.006,-0.01 -0.007,-0.009 -0.006,-0.009 -0.008,-0.009 -0.008,-0.009 -0.007,-0.009 -0.007,-0.008 -0.007,-0.009 -0.008,-0.009 -0.007,-0.008 -0.008,-0.008 -0.008,-0.008 -0.008,-0.008 -0.008,-0.008 -0.007,-0.008 -0.009,-0.008 -0.008,-0.008 -0.008,-0.007 -0.009,-0.008 -0.009,-0.007 -0.008,-0.007 -0.009,-0.008 -0.008,-0.007 -0.009,-0.006 -0.009,-0.007 -0.009,-0.007 -0.009,-0.007 -0.01,-0.006 -0.009,-0.006 -0.009,-0.007 -0.009,-0.006 -0.009,-0.006 -0.01,-0.006 -0.01,-0.006 -0.009,-0.005 -0.01,-0.006 -0.009,-0.005 -0.01,-0.006 -0.01,-0.005 -0.01,-0.005 -0.011,-0.005 -0.009,-0.005 -0.011,-0.004 -0.01,-0.005 -0.01,-0.004 -0.01,-0.005 -0.01,-0.004 -0.011,-0.004 -0.01,-0.004 -0.011,-0.004 -0.011,-0.004 -0.01,-0.003 -0.01,-0.004 -0.012,-0.003 -0.01,-0.004 -0.011,-0.003 -0.011,-0.003 -0.011,-0.002 -0.01,-0.003 -0.011,-0.003 -0.011,-0.002 -0.011,-0.003 -0.012,-0.002 -0.01,-0.002 -0.011,-0.002 -0.012,-0.002 -0.011,-0.002 -0.011,-10e-4 -0.011,-0.002 -0.011,-10e-4 -0.012,-10e-4 -0.011,-0.001 -0.011,-10e-4 h -0.012 l -0.011,-10e-4 h -0.011 l -0.011,-0.001 h -0.012 -0.012 z" />
          </g>
        </g>
        <text
           xml:space="preserve"
           style="font-style:normal;font-variant:normal;font-weight:300;font-stretch:normal;font-size:6.0964303px;line-height:1.25;font-family:'Open Sans';-inkscape-font-specification:'Open Sans Light';letter-spacing:0px;word-spacing:0px;fill:#ffffff;fill-opacity:1;stroke:none;stroke-width:0.15241075"
           x="9.6582928"
           y="292.06186"
           id="text1038"><tspan
             id="tspan1053"
             sodipodi:role="line"
             x="9.6582928"
             y="292.06186"
             style="font-style:normal;font-variant:normal;font-weight:300;font-stretch:normal;font-family:'Open Sans';-inkscape-font-specification:'Open Sans Light';fill:#ffffff;stroke-width:0.15241075">DAN</tspan></text>
        <text
           xml:space="preserve"
           style="font-style:normal;font-variant:normal;font-weight:bold;font-stretch:normal;font-size:1.80443335px;line-height:1.25;font-family:'Open Sans';-inkscape-font-specification:'Open Sans Bold';letter-spacing:0px;word-spacing:0px;fill:#ffffff;fill-opacity:1;stroke:none;stroke-width:0.04511083"
           x="10.121368"
           y="294.48462"
           id="text1038-3"><tspan
             id="tspan1053-6"
             sodipodi:role="line"
             x="10.121368"
             y="294.48462"
             style="font-style:normal;font-variant:normal;font-weight:bold;font-stretch:normal;font-family:'Open Sans';-inkscape-font-specification:'Open Sans Bold';fill:#ffffff;stroke-width:0.04511083">FRONT - END</tspan></text>
      </g>
    </g>
  </g>
</svg>
