<?xml version="1.0" standalone="no"?><!-- Generator: Gravit.io --><svg xmlns="http://www.w3.org/2000/svg" xmlns:xlink="http://www.w3.org/1999/xlink" style="isolation:isolate" viewBox="0 0 560 315" width="560" height="315"><defs><clipPath id="_clipPath_tJYpj38t9pBDKtvfLfh6up4YDXvDZ4yw"><rect width="560" height="315"/></clipPath></defs><g clip-path="url(#_clipPath_tJYpj38t9pBDKtvfLfh6up4YDXvDZ4yw)"><g id="Grupo"><g style="mix-blend-mode:normal;" opacity="0.66"><path d="M 98.434 79.301 L 375.785 79.301 C 380.294 79.301 383.954 82.962 383.954 87.471 L 383.954 252.685 C 383.954 257.194 380.294 260.855 375.785 260.855 L 98.434 260.855 C 93.925 260.855 90.264 257.194 90.264 252.685 L 90.264 87.471 C 90.264 82.962 93.925 79.301 98.434 79.301 Z" style="stroke:none;fill:#D1D1D1;stroke-miterlimit:10;"/></g><path d="M 90.505 73.301 L 370.273 73.301 C 374.822 73.301 378.514 76.993 378.514 81.542 L 378.514 248.196 C 378.514 252.744 374.822 256.437 370.273 256.437 L 90.505 256.437 C 85.957 256.437 82.264 252.744 82.264 248.196 L 82.264 81.542 C 82.264 76.993 85.957 73.301 90.505 73.301 Z" style="stroke:none;fill:#FFFA93;stroke-miterlimit:10;"/><path d="M 435.027 72.301 L 454.098 72.301 C 456.044 72.301 457.625 73.881 457.625 75.828 L 457.625 94.899 C 457.625 96.845 456.044 98.426 454.098 98.426 L 435.027 98.426 C 433.08 98.426 431.5 96.845 431.5 94.899 L 431.5 75.828 C 431.5 73.881 433.08 72.301 435.027 72.301 Z" style="stroke:none;fill:#FF0000;stroke-miterlimit:10;"/><path d="M 473.638 72.301 L 492.709 72.301 C 494.656 72.301 496.236 73.881 496.236 75.828 L 496.236 94.899 C 496.236 96.845 494.656 98.426 492.709 98.426 L 473.638 98.426 C 471.692 98.426 470.112 96.845 470.112 94.899 L 470.112 75.828 C 470.112 73.881 471.692 72.301 473.638 72.301 Z" style="stroke:none;fill:#FF9900;stroke-miterlimit:10;"/><path d="M 435.027 104.479 L 454.098 104.479 C 456.044 104.479 457.625 106.06 457.625 108.006 L 457.625 127.077 C 457.625 129.024 456.044 130.604 454.098 130.604 L 435.027 130.604 C 433.08 130.604 431.5 129.024 431.5 127.077 L 431.5 108.006 C 431.5 106.06 433.08 104.479 435.027 104.479 Z" style="stroke:none;fill:#FFFF00;stroke-miterlimit:10;"/><path d="M 392.097 108.985 L 392.097 97.441 C 392.097 96.263 393.054 95.306 394.232 95.306 L 405.776 95.306 C 406.954 95.306 407.911 96.263 407.911 97.441 L 407.911 108.985 C 407.911 110.163 406.954 111.12 405.776 111.12 L 394.232 111.12 C 393.054 111.12 392.097 110.163 392.097 108.985 Z" style="stroke:none;fill:#FFFFFF;stroke-miterlimit:10;"/><path d="M 392.097 108.985 L 392.097 97.441 C 392.097 96.263 393.054 95.306 394.232 95.306 L 405.776 95.306 C 406.954 95.306 407.911 96.263 407.911 97.441 L 407.911 108.985 C 407.911 110.163 406.954 111.12 405.776 111.12 L 394.232 111.12 C 393.054 111.12 392.097 110.163 392.097 108.985 Z" style="fill:none;stroke:#000000;stroke-width:1;stroke-linecap:square;stroke-miterlimit:3;opacity:0.53;"/><path d="M 392.097 89.047 L 392.097 77.503 C 392.097 76.325 393.054 75.368 394.232 75.368 L 405.776 75.368 C 406.954 75.368 407.911 76.325 407.911 77.503 L 407.911 89.047 C 407.911 90.226 406.954 91.182 405.776 91.182 L 394.232 91.182 C 393.054 91.182 392.097 90.226 392.097 89.047 Z" style="stroke:none;fill:#000000;stroke-linecap:square;stroke-miterlimit:3;"/><path d="M 392.097 129.627 L 392.097 118.083 C 392.097 116.904 393.054 115.948 394.232 115.948 L 405.776 115.948 C 406.954 115.948 407.911 116.904 407.911 118.083 L 407.911 129.627 C 407.911 130.805 406.954 131.762 405.776 131.762 L 394.232 131.762 C 393.054 131.762 392.097 130.805 392.097 129.627 Z" style="stroke:none;fill:#FFFA93;stroke-linecap:square;stroke-miterlimit:3;"/><path d="M 392.097 129.627 L 392.097 118.083 C 392.097 116.904 393.054 115.948 394.232 115.948 L 405.776 115.948 C 406.954 115.948 407.911 116.904 407.911 118.083 L 407.911 129.627 C 407.911 130.805 406.954 131.762 405.776 131.762 L 394.232 131.762 C 393.054 131.762 392.097 130.805 392.097 129.627 Z" style="fill:none;stroke:#000000;stroke-width:1;stroke-linecap:square;stroke-miterlimit:3;opacity:0.53;"/><path d="M 473.638 104.479 L 492.709 104.479 C 494.656 104.479 496.236 106.06 496.236 108.006 L 496.236 127.077 C 496.236 129.024 494.656 130.604 492.709 130.604 L 473.638 130.604 C 471.692 130.604 470.112 129.024 470.112 127.077 L 470.112 108.006 C 470.112 106.06 471.692 104.479 473.638 104.479 Z" style="stroke:none;fill:#00FF00;stroke-linecap:square;stroke-miterlimit:3;"/><path d="M 435.027 136.658 L 454.098 136.658 C 456.044 136.658 457.625 138.238 457.625 140.185 L 457.625 159.256 C 457.625 161.202 456.044 162.782 454.098 162.782 L 435.027 162.782 C 433.08 162.782 431.5 161.202 431.5 159.256 L 431.5 140.185 C 431.5 138.238 433.08 136.658 435.027 136.658 Z" style="stroke:none;fill:#00FFFF;stroke-linecap:square;stroke-miterlimit:3;"/><path d="M 473.638 136.658 L 492.709 136.658 C 494.656 136.658 496.236 138.238 496.236 140.185 L 496.236 159.256 C 496.236 161.202 494.656 162.782 492.709 162.782 L 473.638 162.782 C 471.692 162.782 470.112 161.202 470.112 159.256 L 470.112 140.185 C 470.112 138.238 471.692 136.658 473.638 136.658 Z" style="stroke:none;fill:#009688;stroke-linecap:square;stroke-miterlimit:3;"/><path d="M 435.027 168.836 L 454.098 168.836 C 456.044 168.836 457.625 170.417 457.625 172.363 L 457.625 191.434 C 457.625 193.381 456.044 194.961 454.098 194.961 L 435.027 194.961 C 433.08 194.961 431.5 193.381 431.5 191.434 L 431.5 172.363 C 431.5 170.417 433.08 168.836 435.027 168.836 Z" style="stroke:none;fill:#4A86E8;stroke-linecap:square;stroke-miterlimit:3;"/><path d="M 473.638 168.836 L 492.709 168.836 C 494.656 168.836 496.236 170.417 496.236 172.363 L 496.236 191.434 C 496.236 193.381 494.656 194.961 492.709 194.961 L 473.638 194.961 C 471.692 194.961 470.112 193.381 470.112 191.434 L 470.112 172.363 C 470.112 170.417 471.692 168.836 473.638 168.836 Z" style="stroke:none;fill:#0000FF;stroke-linecap:square;stroke-miterlimit:3;"/><path d="M 435.027 201.015 L 454.098 201.015 C 456.044 201.015 457.625 202.595 457.625 204.542 L 457.625 223.613 C 457.625 225.559 456.044 227.139 454.098 227.139 L 435.027 227.139 C 433.08 227.139 431.5 225.559 431.5 223.613 L 431.5 204.542 C 431.5 202.595 433.08 201.015 435.027 201.015 Z" style="stroke:none;fill:#9900FF;stroke-linecap:square;stroke-miterlimit:3;"/><path d="M 473.638 201.015 L 492.709 201.015 C 494.656 201.015 496.236 202.595 496.236 204.542 L 496.236 223.613 C 496.236 225.559 494.656 227.139 492.709 227.139 L 473.638 227.139 C 471.692 227.139 470.112 225.559 470.112 223.613 L 470.112 204.542 C 470.112 202.595 471.692 201.015 473.638 201.015 Z" style="stroke:none;fill:#FF00FF;stroke-linecap:square;stroke-miterlimit:3;"/><path d="M 435.027 233.193 L 454.098 233.193 C 456.044 233.193 457.625 234.773 457.625 236.72 L 457.625 257.328 C 457.625 259.274 456.044 260.855 454.098 260.855 L 435.027 260.855 C 433.08 260.855 431.5 259.274 431.5 257.328 L 431.5 236.72 C 431.5 234.773 433.08 233.193 435.027 233.193 Z" style="stroke:none;fill:#000000;stroke-linecap:square;stroke-miterlimit:3;"/><path d="M 473.638 233.193 L 492.709 233.193 C 494.656 233.193 496.236 234.773 496.236 236.72 L 496.236 257.328 C 496.236 259.274 494.656 260.855 492.709 260.855 L 473.638 260.855 C 471.692 260.855 470.112 259.274 470.112 257.328 L 470.112 236.72 C 470.112 234.773 471.692 233.193 473.638 233.193 Z" style="stroke:none;fill:#FFFFFF;stroke-linecap:square;stroke-miterlimit:3;"/><path d="M 473.638 233.193 L 492.709 233.193 C 494.656 233.193 496.236 234.773 496.236 236.72 L 496.236 257.328 C 496.236 259.274 494.656 260.855 492.709 260.855 L 473.638 260.855 C 471.692 260.855 470.112 259.274 470.112 257.328 L 470.112 236.72 C 470.112 234.773 471.692 233.193 473.638 233.193 Z" style="fill:none;stroke:#000000;stroke-width:1;stroke-linecap:square;stroke-miterlimit:3;"/><path d="M 433.065 12.477 L 494.382 12.477 C 495.406 12.477 496.236 13.308 496.236 14.331 L 496.236 54.198 C 496.236 55.221 495.406 56.052 494.382 56.052 L 433.065 56.052 C 432.042 56.052 431.211 55.221 431.211 54.198 L 431.211 14.331 C 431.211 13.308 432.042 12.477 433.065 12.477 Z" style="stroke:none;fill:#FFFFFF;stroke-linecap:square;stroke-miterlimit:3;"/><path d="M 433.065 12.477 L 494.382 12.477 C 495.406 12.477 496.236 13.308 496.236 14.331 L 496.236 54.198 C 496.236 55.221 495.406 56.052 494.382 56.052 L 433.065 56.052 C 432.042 56.052 431.211 55.221 431.211 54.198 L 431.211 14.331 C 431.211 13.308 432.042 12.477 433.065 12.477 Z" style="fill:none;stroke:#000000;stroke-width:0.5;stroke-linecap:square;stroke-miterlimit:3;"/><g opacity="0.89"><rect x="50.234" y="87.407" width="91.085" height="13" transform="matrix(0.679,-0.734,0.734,0.679,-38.195,100.493)" fill="rgb(74,134,232)" fill-opacity="0.69"/></g><g opacity="0.89"><rect x="357.936" y="249.433" width="40.276" height="11.801" transform="matrix(0.679,-0.734,0.734,0.679,-66.061,359.639)" fill="rgb(74,134,232)" fill-opacity="0.69"/></g><g transform="matrix(1,0,0,1,167,7.821)"><text transform="matrix(1,0,0,1,0,43.646)" style="font-family:&quot;Waiting for the Sunrise&quot;;font-weight:400;font-size:39px;font-style:normal;fill:#000000;stroke:none;">Paint Card</text></g><g id="Grupo"><g id="Grupo"><path d="M 92.568 280.421 L 170.946 280.421 C 172.218 280.421 173.25 281.453 173.25 282.724 L 173.25 301.117 C 173.25 302.389 172.218 303.421 170.946 303.421 L 92.568 303.421 C 91.296 303.421 90.264 302.389 90.264 301.117 L 90.264 282.724 C 90.264 281.453 91.296 280.421 92.568 280.421 Z" style="stroke:none;fill:#000000;stroke-linecap:square;stroke-miterlimit:3;"/><g transform="matrix(1,0,0,1,94.899,278.542)"><text transform="matrix(1,0,0,1,0,19.295)" style="font-family:&quot;Saira Condensed&quot;;font-weight:400;font-size:17px;font-style:normal;fill:#ffffff;stroke:none;">SALVAR </text></g></g><g id="Grupo"><path d="M 149.25 285.01 L 160.959 285.01 L 164.202 288.254 L 164.202 299.963 L 149.25 299.963 L 149.25 285.01 Z" style="stroke:none;fill:#FFFFFF;stroke-linecap:square;stroke-miterlimit:3;"/><rect x="155.661" y="296.824" width="2.13" height="6.064" transform="matrix(0,1,-1,0,456.582,143.129)" fill="rgb(0,0,0)"/><rect x="156.14" y="293.974" width="1.172" height="6.064" transform="matrix(0,1,-1,0,453.733,140.28)" fill="rgb(0,0,0)"/><rect x="156.14" y="291.479" width="1.172" height="6.064" transform="matrix(0,1,-1,0,451.237,137.785)" fill="rgb(0,0,0)"/><rect x="154.636" y="283.979" width="4.181" height="6.064" transform="matrix(0,1,-1,0,443.738,130.285)" fill="rgb(0,0,0)"/><rect x="154.44" y="285.829" width="0.973" height="2.454" transform="matrix(1,0,0,1,0,0)" fill="rgb(255,255,255)"/></g></g><g id="Grupo"><path d="M 188.389 280.421 L 209.912 280.421 C 210.596 280.421 211.151 280.976 211.151 281.66 L 211.151 302.182 C 211.151 302.866 210.596 303.421 209.912 303.421 L 188.389 303.421 C 187.706 303.421 187.151 302.866 187.151 302.182 L 187.151 281.66 C 187.151 280.976 187.706 280.421 188.389 280.421 Z" style="stroke:none;fill:#000000;stroke-linecap:square;stroke-miterlimit:3;"/><path d="M 202.259 282.537 L 207.385 286.477 C 208.158 287.071 208.303 288.182 207.709 288.955 L 201.241 297.369 L 192.828 298.47 L 191.058 297.109 C 190.284 296.515 190.139 295.404 190.733 294.631 L 199.781 282.861 C 200.375 282.088 201.486 281.942 202.259 282.537 Z" style="stroke:none;fill:#747474;stroke-linecap:square;stroke-miterlimit:3;"/><path d="M 196.248 289.508 L 202.393 294.231 C 202.83 294.567 202.912 295.196 202.576 295.633 L 201.241 297.369 L 192.828 298.47 L 190.647 296.794 C 190.1 296.373 189.998 295.588 190.418 295.041 L 194.495 289.737 C 194.916 289.19 195.701 289.087 196.248 289.508 Z" style="stroke:none;fill:#FFFFFF;stroke-linecap:square;stroke-miterlimit:3;"/><rect x="192.876" y="297.301" width="12.204" height="1.169" transform="matrix(1,0,0,1,0,0)" fill="rgb(255,255,255)"/></g><g id="Grupo"><path d="M 226.29 280.421 L 247.812 280.421 C 248.496 280.421 249.051 280.976 249.051 281.66 L 249.051 302.182 C 249.051 302.866 248.496 303.421 247.812 303.421 L 226.29 303.421 C 225.606 303.421 225.051 302.866 225.051 302.182 L 225.051 281.66 C 225.051 280.976 225.606 280.421 226.29 280.421 Z" style="stroke:none;fill:#000000;stroke-linecap:square;stroke-miterlimit:3;"/><rect x="232.685" y="287.554" width="8.733" height="8.733" transform="matrix(1,0,0,1,0,0)" fill="rgb(255,255,255)"/></g><g id="Grupo"><path d="M 264.191 280.421 L 285.713 280.421 C 286.397 280.421 286.952 280.976 286.952 281.66 L 286.952 302.182 C 286.952 302.866 286.397 303.421 285.713 303.421 L 264.191 303.421 C 263.507 303.421 262.952 302.866 262.952 302.182 L 262.952 281.66 C 262.952 280.976 263.507 280.421 264.191 280.421 Z" style="stroke:none;fill:#000000;stroke-linecap:square;stroke-miterlimit:3;"/><path d=" M 270.297 291.921 C 270.297 289.161 272.537 286.921 275.297 286.921 C 278.057 286.921 280.297 289.161 280.297 291.921 C 280.297 294.68 278.057 296.921 275.297 296.921 C 272.537 296.921 270.297 294.68 270.297 291.921 Z " fill="rgb(255,255,255)"/></g><g id="Grupo"><path d="M 302.091 280.421 L 323.614 280.421 C 324.297 280.421 324.852 280.976 324.852 281.66 L 324.852 302.182 C 324.852 302.866 324.297 303.421 323.614 303.421 L 302.091 303.421 C 301.408 303.421 300.852 302.866 300.852 302.182 L 300.852 281.66 C 300.852 280.976 301.408 280.421 302.091 280.421 Z" style="stroke:none;fill:#000000;stroke-linecap:square;stroke-miterlimit:3;"/><polygon points="312.852,287.554,317.895,296.287,307.81,296.287" fill="rgb(255,255,255)"/></g><g id="Grupo"><path d="M 410.336 282.3 L 497.486 282.3 C 498.824 282.3 499.911 283.387 499.911 284.725 L 499.911 302.874 C 499.911 304.213 498.824 305.3 497.486 305.3 L 410.336 305.3 C 408.998 305.3 407.911 304.213 407.911 302.874 L 407.911 284.725 C 407.911 283.387 408.998 282.3 410.336 282.3 Z" style="stroke:none;fill:#FF0000;stroke-linecap:square;stroke-miterlimit:3;"/><g transform="matrix(1,0,0,1,412.161,280.421)"><text transform="matrix(1,0,0,1,3.851,19.295)" style="font-family:&quot;Saira Condensed&quot;;font-weight:400;font-size:17px;font-style:normal;fill:#ffffff;stroke:none;">SELECIONAR</text></g></g><g id="Grupo"><g id="Folha"><path d=" M 447.461 27.232 L 447.497 23.852 L 451.788 23.852 C 455.207 23.852 457.807 24.397 459.59 26.343 C 461.373 28.289 462.264 31.128 462.264 34.86 C 462.264 38.773 461.321 41.732 459.436 43.736 C 457.551 45.74 454.782 46.3 451.129 46.3 L 447.461 46.3 L 437.765 40.392 L 437.765 32.69 L 441.277 32.69 L 437.77 27.833 L 437.77 16.483 L 447.461 27.232 Z " fill-rule="evenodd" fill="rgb(0,34,34)"/><path d=" M 437.986 16.083 L 438.108 16.179 L 447.019 26.062 L 447.042 23.847 L 447.066 23.708 L 447.131 23.582 L 447.231 23.483 L 447.357 23.419 L 447.497 23.397 L 451.788 23.397 L 451.829 23.397 L 451.869 23.397 L 451.91 23.397 L 451.95 23.397 L 451.991 23.398 L 452.031 23.398 L 452.071 23.398 L 452.111 23.399 L 452.151 23.399 L 452.191 23.399 L 452.231 23.4 L 452.271 23.401 L 452.311 23.401 L 452.35 23.402 L 452.39 23.403 L 452.429 23.404 L 452.469 23.405 L 452.509 23.406 L 452.548 23.407 L 452.587 23.408 L 452.626 23.409 L 452.666 23.41 L 452.704 23.411 L 452.744 23.412 L 452.782 23.414 L 452.821 23.415 L 452.86 23.417 L 452.899 23.418 L 452.938 23.42 L 452.976 23.421 L 453.015 23.423 L 453.053 23.425 L 453.091 23.427 L 453.13 23.428 L 453.168 23.43 L 453.206 23.433 L 453.244 23.434 L 453.282 23.436 L 453.32 23.439 L 453.358 23.441 L 453.396 23.443 L 453.434 23.446 L 453.471 23.448 L 453.509 23.451 L 453.547 23.453 L 453.584 23.456 L 453.622 23.459 L 453.659 23.461 L 453.697 23.464 L 453.734 23.467 L 453.771 23.47 L 453.808 23.473 L 453.845 23.476 L 453.882 23.48 L 453.919 23.483 L 453.956 23.486 L 453.993 23.49 L 454.029 23.493 L 454.066 23.497 L 454.102 23.5 L 454.139 23.504 L 454.175 23.508 L 454.212 23.511 L 454.248 23.515 L 454.284 23.519 L 454.32 23.523 L 454.356 23.527 L 454.392 23.532 L 454.428 23.536 L 454.464 23.54 L 454.5 23.545 L 454.536 23.549 L 454.571 23.554 L 454.607 23.558 L 454.642 23.563 L 454.678 23.568 L 454.713 23.573 L 454.749 23.578 L 454.784 23.583 L 454.819 23.588 L 454.854 23.593 L 454.89 23.598 L 454.925 23.604 L 454.959 23.609 L 454.994 23.614 L 455.029 23.62 L 455.064 23.626 L 455.098 23.631 L 455.133 23.637 L 455.168 23.643 L 455.202 23.649 L 455.236 23.655 L 455.271 23.661 L 455.305 23.667 L 455.339 23.674 L 455.373 23.68 L 455.407 23.686 L 455.442 23.693 L 455.475 23.7 L 455.509 23.706 L 455.543 23.713 L 455.577 23.72 L 455.61 23.727 L 455.644 23.734 L 455.677 23.742 L 455.711 23.749 L 455.744 23.756 L 455.778 23.763 L 455.811 23.771 L 455.844 23.779 L 455.877 23.786 L 455.91 23.794 L 455.943 23.802 L 455.976 23.81 L 456.009 23.818 L 456.042 23.826 L 456.074 23.834 L 456.107 23.843 L 456.14 23.851 L 456.172 23.86 L 456.205 23.868 L 456.237 23.877 L 456.27 23.886 L 456.302 23.895 L 456.334 23.904 L 456.366 23.913 L 456.398 23.922 L 456.43 23.931 L 456.462 23.941 L 456.494 23.95 L 456.526 23.96 L 456.557 23.969 L 456.589 23.979 L 456.62 23.989 L 456.652 23.999 L 456.683 24.009 L 456.715 24.019 L 456.746 24.029 L 456.777 24.04 L 456.808 24.05 L 456.839 24.061 L 456.87 24.071 L 456.901 24.082 L 456.932 24.093 L 456.963 24.104 L 456.994 24.115 L 457.025 24.126 L 457.055 24.138 L 457.086 24.149 L 457.116 24.161 L 457.146 24.172 L 457.177 24.184 L 457.207 24.195 L 457.237 24.208 L 457.267 24.219 L 457.297 24.231 L 457.327 24.244 L 457.357 24.256 L 457.387 24.268 L 457.417 24.281 L 457.447 24.294 L 457.476 24.307 L 457.506 24.319 L 457.535 24.333 L 457.565 24.345 L 457.594 24.359 L 457.623 24.372 L 457.652 24.386 L 457.682 24.399 L 457.711 24.413 L 457.74 24.427 L 457.769 24.44 L 457.797 24.454 L 457.826 24.468 L 457.855 24.482 L 457.884 24.497 L 457.912 24.511 L 457.941 24.526 L 457.969 24.54 L 457.997 24.555 L 458.026 24.57 L 458.054 24.585 L 458.082 24.6 L 458.11 24.616 L 458.138 24.631 L 458.166 24.646 L 458.193 24.662 L 458.221 24.678 L 458.249 24.694 L 458.276 24.71 L 458.304 24.726 L 458.332 24.742 L 458.359 24.758 L 458.386 24.774 L 458.414 24.791 L 458.441 24.808 L 458.468 24.824 L 458.495 24.841 L 458.521 24.859 L 458.548 24.876 L 458.575 24.893 L 458.602 24.91 L 458.628 24.928 L 458.655 24.945 L 458.681 24.963 L 458.708 24.981 L 458.734 24.999 L 458.76 25.017 L 458.786 25.036 L 458.812 25.054 L 458.838 25.072 L 458.864 25.091 L 458.89 25.11 L 458.916 25.128 L 458.942 25.147 L 458.967 25.167 L 458.993 25.186 L 459.018 25.205 L 459.044 25.225 L 459.069 25.244 L 459.094 25.264 L 459.119 25.284 L 459.144 25.304 L 459.169 25.324 L 459.194 25.344 L 459.219 25.365 L 459.244 25.385 L 459.268 25.406 L 459.293 25.427 L 459.317 25.448 L 459.342 25.469 L 459.366 25.49 L 459.39 25.511 L 459.415 25.532 L 459.438 25.554 L 459.463 25.575 L 459.487 25.597 L 459.51 25.619 L 459.534 25.641 L 459.558 25.663 L 459.581 25.686 L 459.605 25.708 L 459.628 25.731 L 459.651 25.753 L 459.675 25.776 L 459.698 25.799 L 459.721 25.822 L 459.744 25.845 L 459.767 25.869 L 459.79 25.892 L 459.813 25.916 L 459.835 25.94 L 459.858 25.964 L 459.88 25.987 L 459.903 26.012 L 459.925 26.036 L 459.947 26.06 L 459.969 26.084 L 459.991 26.109 L 460.013 26.133 L 460.034 26.157 L 460.056 26.182 L 460.077 26.206 L 460.099 26.231 L 460.12 26.256 L 460.141 26.281 L 460.162 26.306 L 460.183 26.331 L 460.204 26.356 L 460.225 26.381 L 460.246 26.406 L 460.266 26.432 L 460.287 26.457 L 460.308 26.483 L 460.328 26.508 L 460.348 26.534 L 460.369 26.56 L 460.389 26.586 L 460.409 26.612 L 460.429 26.638 L 460.449 26.664 L 460.469 26.69 L 460.488 26.716 L 460.508 26.743 L 460.528 26.769 L 460.547 26.796 L 460.566 26.823 L 460.586 26.849 L 460.605 26.876 L 460.624 26.903 L 460.643 26.93 L 460.662 26.957 L 460.681 26.984 L 460.7 27.011 L 460.718 27.039 L 460.737 27.066 L 460.755 27.094 L 460.774 27.121 L 460.792 27.148 L 460.81 27.176 L 460.828 27.204 L 460.847 27.232 L 460.864 27.26 L 460.883 27.288 L 460.9 27.316 L 460.918 27.344 L 460.936 27.373 L 460.953 27.401 L 460.971 27.429 L 460.988 27.458 L 461.005 27.487 L 461.022 27.515 L 461.039 27.544 L 461.056 27.573 L 461.073 27.602 L 461.09 27.631 L 461.107 27.66 L 461.124 27.689 L 461.14 27.719 L 461.157 27.748 L 461.173 27.778 L 461.189 27.807 L 461.206 27.837 L 461.222 27.866 L 461.238 27.896 L 461.254 27.926 L 461.27 27.956 L 461.285 27.986 L 461.301 28.016 L 461.317 28.046 L 461.332 28.077 L 461.348 28.107 L 461.363 28.137 L 461.378 28.168 L 461.393 28.198 L 461.408 28.229 L 461.423 28.26 L 461.438 28.291 L 461.453 28.322 L 461.468 28.353 L 461.482 28.383 L 461.497 28.415 L 461.512 28.446 L 461.526 28.478 L 461.54 28.509 L 461.554 28.54 L 461.568 28.572 L 461.582 28.604 L 461.596 28.635 L 461.61 28.667 L 461.624 28.699 L 461.638 28.731 L 461.651 28.763 L 461.665 28.795 L 461.678 28.827 L 461.691 28.859 L 461.705 28.892 L 461.718 28.924 L 461.731 28.957 L 461.744 28.989 L 461.757 29.022 L 461.769 29.055 L 461.782 29.088 L 461.795 29.12 L 461.807 29.153 L 461.82 29.187 L 461.832 29.22 L 461.844 29.253 L 461.857 29.286 L 461.869 29.32 L 461.881 29.353 L 461.893 29.387 L 461.905 29.42 L 461.916 29.454 L 461.928 29.488 L 461.94 29.522 L 461.951 29.556 L 461.962 29.59 L 461.974 29.624 L 461.985 29.658 L 461.996 29.692 L 462.007 29.726 L 462.018 29.761 L 462.029 29.796 L 462.04 29.83 L 462.051 29.865 L 462.061 29.9 L 462.072 29.934 L 462.082 29.969 L 462.093 30.004 L 462.103 30.039 L 462.113 30.074 L 462.123 30.11 L 462.133 30.145 L 462.143 30.18 L 462.153 30.216 L 462.163 30.251 L 462.172 30.287 L 462.182 30.323 L 462.192 30.358 L 462.201 30.394 L 462.21 30.43 L 462.219 30.466 L 462.229 30.502 L 462.238 30.538 L 462.247 30.574 L 462.256 30.611 L 462.264 30.647 L 462.273 30.684 L 462.282 30.72 L 462.29 30.757 L 462.299 30.793 L 462.307 30.83 L 462.316 30.867 L 462.324 30.904 L 462.332 30.941 L 462.34 30.978 L 462.348 31.016 L 462.356 31.053 L 462.364 31.09 L 462.371 31.127 L 462.379 31.165 L 462.387 31.203 L 462.394 31.24 L 462.401 31.278 L 462.409 31.316 L 462.416 31.354 L 462.423 31.392 L 462.43 31.429 L 462.437 31.468 L 462.443 31.506 L 462.451 31.544 L 462.457 31.583 L 462.464 31.621 L 462.47 31.66 L 462.477 31.698 L 462.483 31.737 L 462.489 31.776 L 462.495 31.814 L 462.502 31.853 L 462.508 31.892 L 462.513 31.931 L 462.519 31.97 L 462.525 32.01 L 462.531 32.049 L 462.536 32.088 L 462.542 32.128 L 462.547 32.167 L 462.552 32.207 L 462.558 32.246 L 462.563 32.286 L 462.568 32.326 L 462.573 32.366 L 462.578 32.406 L 462.583 32.446 L 462.587 32.486 L 462.592 32.526 L 462.597 32.567 L 462.601 32.607 L 462.606 32.648 L 462.61 32.688 L 462.614 32.729 L 462.618 32.77 L 462.622 32.81 L 462.626 32.851 L 462.63 32.892 L 462.634 32.933 L 462.638 32.974 L 462.641 33.015 L 462.645 33.057 L 462.648 33.098 L 462.652 33.14 L 462.655 33.181 L 462.658 33.223 L 462.661 33.264 L 462.664 33.306 L 462.667 33.348 L 462.67 33.39 L 462.673 33.432 L 462.676 33.474 L 462.678 33.516 L 462.681 33.558 L 462.683 33.6 L 462.686 33.642 L 462.688 33.685 L 462.69 33.727 L 462.692 33.77 L 462.694 33.813 L 462.696 33.855 L 462.698 33.898 L 462.7 33.941 L 462.702 33.984 L 462.703 34.027 L 462.705 34.07 L 462.706 34.114 L 462.708 34.157 L 462.709 34.2 L 462.71 34.244 L 462.711 34.287 L 462.712 34.331 L 462.713 34.374 L 462.714 34.418 L 462.715 34.462 L 462.716 34.506 L 462.716 34.55 L 462.717 34.594 L 462.717 34.638 L 462.718 34.682 L 462.718 34.727 L 462.718 34.771 L 462.718 34.816 L 462.718 34.86 L 462.718 34.907 L 462.718 34.953 L 462.718 35 L 462.718 35.046 L 462.717 35.093 L 462.717 35.139 L 462.716 35.185 L 462.716 35.231 L 462.715 35.277 L 462.714 35.323 L 462.713 35.369 L 462.712 35.415 L 462.711 35.46 L 462.71 35.506 L 462.708 35.551 L 462.707 35.597 L 462.706 35.642 L 462.704 35.687 L 462.702 35.732 L 462.701 35.777 L 462.699 35.822 L 462.697 35.867 L 462.695 35.912 L 462.693 35.957 L 462.691 36.001 L 462.689 36.046 L 462.686 36.09 L 462.684 36.135 L 462.681 36.179 L 462.679 36.224 L 462.676 36.267 L 462.673 36.312 L 462.67 36.356 L 462.667 36.4 L 462.664 36.443 L 462.661 36.487 L 462.658 36.531 L 462.655 36.574 L 462.651 36.618 L 462.648 36.661 L 462.644 36.704 L 462.641 36.748 L 462.637 36.791 L 462.633 36.834 L 462.629 36.877 L 462.625 36.92 L 462.621 36.963 L 462.617 37.005 L 462.613 37.048 L 462.608 37.091 L 462.604 37.133 L 462.599 37.175 L 462.594 37.218 L 462.59 37.26 L 462.585 37.302 L 462.58 37.344 L 462.575 37.386 L 462.57 37.428 L 462.565 37.47 L 462.559 37.511 L 462.554 37.553 L 462.549 37.595 L 462.543 37.636 L 462.538 37.677 L 462.532 37.719 L 462.526 37.76 L 462.52 37.801 L 462.514 37.842 L 462.508 37.883 L 462.502 37.924 L 462.495 37.965 L 462.489 38.006 L 462.483 38.046 L 462.476 38.087 L 462.469 38.127 L 462.463 38.168 L 462.456 38.208 L 462.449 38.248 L 462.442 38.288 L 462.435 38.328 L 462.428 38.368 L 462.421 38.408 L 462.414 38.448 L 462.406 38.488 L 462.399 38.527 L 462.391 38.567 L 462.383 38.606 L 462.375 38.646 L 462.368 38.685 L 462.36 38.724 L 462.352 38.763 L 462.343 38.802 L 462.335 38.841 L 462.327 38.88 L 462.318 38.919 L 462.31 38.958 L 462.301 38.996 L 462.293 39.035 L 462.284 39.073 L 462.275 39.112 L 462.266 39.15 L 462.257 39.188 L 462.248 39.226 L 462.239 39.264 L 462.229 39.302 L 462.22 39.34 L 462.211 39.378 L 462.201 39.415 L 462.191 39.453 L 462.181 39.49 L 462.172 39.528 L 462.162 39.565 L 462.151 39.603 L 462.141 39.64 L 462.131 39.677 L 462.121 39.714 L 462.111 39.751 L 462.1 39.788 L 462.089 39.825 L 462.079 39.861 L 462.068 39.898 L 462.057 39.934 L 462.046 39.971 L 462.035 40.007 L 462.024 40.044 L 462.013 40.08 L 462.002 40.116 L 461.99 40.152 L 461.978 40.188 L 461.967 40.223 L 461.955 40.259 L 461.943 40.295 L 461.932 40.331 L 461.92 40.366 L 461.908 40.401 L 461.895 40.437 L 461.883 40.472 L 461.871 40.507 L 461.858 40.542 L 461.846 40.577 L 461.833 40.612 L 461.821 40.647 L 461.808 40.682 L 461.795 40.716 L 461.782 40.751 L 461.769 40.785 L 461.756 40.82 L 461.743 40.854 L 461.729 40.888 L 461.716 40.922 L 461.702 40.956 L 461.688 40.99 L 461.675 41.024 L 461.661 41.058 L 461.647 41.092 L 461.633 41.125 L 461.619 41.159 L 461.605 41.192 L 461.591 41.226 L 461.576 41.259 L 461.562 41.292 L 461.547 41.326 L 461.533 41.358 L 461.518 41.391 L 461.503 41.424 L 461.488 41.457 L 461.473 41.49 L 461.458 41.522 L 461.443 41.555 L 461.428 41.587 L 461.412 41.619 L 461.397 41.652 L 461.382 41.684 L 461.366 41.716 L 461.35 41.748 L 461.334 41.78 L 461.318 41.812 L 461.302 41.843 L 461.286 41.875 L 461.27 41.907 L 461.254 41.938 L 461.237 41.969 L 461.221 42.001 L 461.204 42.032 L 461.187 42.063 L 461.171 42.094 L 461.154 42.125 L 461.137 42.156 L 461.12 42.187 L 461.103 42.218 L 461.086 42.248 L 461.068 42.279 L 461.051 42.309 L 461.033 42.34 L 461.016 42.37 L 460.998 42.4 L 460.98 42.43 L 460.962 42.46 L 460.945 42.49 L 460.926 42.52 L 460.908 42.55 L 460.89 42.579 L 460.872 42.609 L 460.853 42.638 L 460.835 42.668 L 460.816 42.697 L 460.797 42.726 L 460.779 42.755 L 460.76 42.784 L 460.741 42.813 L 460.722 42.842 L 460.702 42.871 L 460.683 42.899 L 460.664 42.928 L 460.644 42.956 L 460.625 42.985 L 460.605 43.013 L 460.586 43.041 L 460.566 43.07 L 460.546 43.098 L 460.526 43.125 L 460.505 43.153 L 460.485 43.181 L 460.465 43.209 L 460.445 43.237 L 460.424 43.264 L 460.404 43.291 L 460.383 43.319 L 460.362 43.346 L 460.342 43.373 L 460.321 43.4 L 460.3 43.427 L 460.278 43.454 L 460.257 43.481 L 460.236 43.508 L 460.214 43.534 L 460.193 43.561 L 460.171 43.587 L 460.15 43.613 L 460.128 43.64 L 460.106 43.666 L 460.084 43.692 L 460.062 43.718 L 460.04 43.744 L 460.018 43.77 L 459.995 43.795 L 459.973 43.821 L 459.951 43.846 L 459.928 43.872 L 459.905 43.897 L 459.883 43.923 L 459.86 43.948 L 459.837 43.973 L 459.814 43.998 L 459.791 44.023 L 459.767 44.048 L 459.744 44.072 L 459.72 44.097 L 459.696 44.122 L 459.672 44.147 L 459.649 44.171 L 459.624 44.195 L 459.601 44.219 L 459.576 44.243 L 459.552 44.267 L 459.527 44.291 L 459.503 44.314 L 459.478 44.338 L 459.454 44.361 L 459.429 44.384 L 459.404 44.407 L 459.379 44.43 L 459.354 44.453 L 459.329 44.476 L 459.304 44.498 L 459.279 44.52 L 459.254 44.543 L 459.228 44.565 L 459.202 44.587 L 459.177 44.609 L 459.151 44.63 L 459.125 44.652 L 459.099 44.674 L 459.073 44.695 L 459.047 44.716 L 459.021 44.737 L 458.995 44.758 L 458.969 44.779 L 458.942 44.799 L 458.916 44.82 L 458.89 44.84 L 458.863 44.861 L 458.836 44.881 L 458.809 44.901 L 458.782 44.921 L 458.755 44.94 L 458.728 44.96 L 458.701 44.98 L 458.674 44.999 L 458.647 45.018 L 458.619 45.037 L 458.592 45.056 L 458.564 45.075 L 458.537 45.094 L 458.509 45.112 L 458.481 45.131 L 458.453 45.149 L 458.425 45.168 L 458.397 45.186 L 458.369 45.204 L 458.341 45.221 L 458.312 45.239 L 458.284 45.257 L 458.256 45.274 L 458.227 45.291 L 458.198 45.309 L 458.17 45.326 L 458.141 45.343 L 458.112 45.359 L 458.083 45.376 L 458.054 45.393 L 458.025 45.409 L 457.996 45.426 L 457.967 45.442 L 457.937 45.458 L 457.908 45.474 L 457.878 45.49 L 457.849 45.506 L 457.819 45.522 L 457.789 45.537 L 457.759 45.552 L 457.729 45.567 L 457.699 45.583 L 457.67 45.598 L 457.639 45.613 L 457.609 45.627 L 457.579 45.642 L 457.548 45.657 L 457.518 45.671 L 457.488 45.686 L 457.457 45.7 L 457.426 45.714 L 457.395 45.728 L 457.365 45.742 L 457.334 45.756 L 457.303 45.769 L 457.272 45.783 L 457.24 45.796 L 457.209 45.809 L 457.178 45.823 L 457.146 45.836 L 457.115 45.849 L 457.083 45.862 L 457.052 45.874 L 457.02 45.887 L 456.989 45.899 L 456.957 45.912 L 456.925 45.924 L 456.893 45.936 L 456.861 45.949 L 456.829 45.961 L 456.796 45.972 L 456.764 45.984 L 456.732 45.996 L 456.699 46.007 L 456.667 46.019 L 456.634 46.03 L 456.602 46.041 L 456.569 46.053 L 456.536 46.064 L 456.503 46.075 L 456.47 46.085 L 456.437 46.096 L 456.404 46.107 L 456.371 46.117 L 456.338 46.128 L 456.305 46.138 L 456.271 46.148 L 456.238 46.158 L 456.204 46.168 L 456.17 46.178 L 456.137 46.188 L 456.103 46.198 L 456.069 46.207 L 456.035 46.217 L 456.001 46.226 L 455.967 46.236 L 455.933 46.245 L 455.899 46.254 L 455.864 46.263 L 455.83 46.272 L 455.796 46.281 L 455.761 46.289 L 455.727 46.298 L 455.692 46.307 L 455.657 46.315 L 455.622 46.324 L 455.587 46.332 L 455.552 46.34 L 455.517 46.348 L 455.483 46.356 L 455.447 46.364 L 455.412 46.372 L 455.377 46.379 L 455.341 46.387 L 455.306 46.394 L 455.27 46.402 L 455.235 46.409 L 455.199 46.416 L 455.163 46.424 L 455.127 46.431 L 455.092 46.438 L 455.056 46.445 L 455.02 46.451 L 454.983 46.458 L 454.947 46.465 L 454.911 46.471 L 454.875 46.478 L 454.838 46.484 L 454.802 46.491 L 454.765 46.497 L 454.729 46.503 L 454.692 46.509 L 454.655 46.515 L 454.618 46.521 L 454.581 46.527 L 454.544 46.532 L 454.507 46.538 L 454.47 46.544 L 454.433 46.549 L 454.395 46.554 L 454.358 46.56 L 454.321 46.565 L 454.283 46.57 L 454.246 46.575 L 454.208 46.58 L 454.17 46.585 L 454.132 46.59 L 454.094 46.595 L 454.057 46.599 L 454.019 46.604 L 453.98 46.608 L 453.942 46.613 L 453.904 46.617 L 453.866 46.621 L 453.827 46.626 L 453.789 46.63 L 453.75 46.634 L 453.712 46.638 L 453.673 46.642 L 453.634 46.645 L 453.595 46.649 L 453.556 46.653 L 453.517 46.657 L 453.478 46.66 L 453.439 46.664 L 453.4 46.667 L 453.361 46.67 L 453.322 46.674 L 453.282 46.677 L 453.242 46.68 L 453.203 46.683 L 453.163 46.686 L 453.124 46.689 L 453.084 46.692 L 453.044 46.695 L 453.004 46.697 L 452.964 46.7 L 452.924 46.702 L 452.884 46.705 L 452.843 46.708 L 452.803 46.71 L 452.763 46.712 L 452.722 46.715 L 452.682 46.717 L 452.641 46.719 L 452.6 46.721 L 452.559 46.723 L 452.519 46.725 L 452.478 46.727 L 452.437 46.728 L 452.396 46.73 L 452.355 46.732 L 452.313 46.733 L 452.272 46.735 L 452.231 46.737 L 452.189 46.738 L 452.148 46.739 L 452.106 46.741 L 452.064 46.742 L 452.023 46.743 L 451.981 46.744 L 451.939 46.746 L 451.897 46.746 L 451.855 46.747 L 451.813 46.748 L 451.771 46.749 L 451.729 46.75 L 451.686 46.751 L 451.644 46.751 L 451.601 46.752 L 451.559 46.753 L 451.516 46.753 L 451.473 46.753 L 451.431 46.754 L 451.388 46.754 L 451.345 46.754 L 451.302 46.755 L 451.259 46.755 L 451.215 46.755 L 451.172 46.755 L 451.129 46.755 L 447.461 46.755 L 447.339 46.738 L 447.225 46.689 L 437.528 40.78 L 437.412 40.679 L 437.336 40.544 L 437.31 40.392 L 437.31 32.69 L 437.332 32.549 L 437.397 32.423 L 437.498 32.322 L 437.624 32.257 L 437.765 32.235 L 440.388 32.235 L 437.402 28.099 L 437.338 27.973 L 437.316 27.833 L 437.316 16.483 L 437.342 16.33 L 437.419 16.195 L 437.537 16.093 L 437.682 16.037 L 437.838 16.034 L 437.986 16.083 Z  M 437.77 27.833 L 441.277 32.69 L 437.765 32.69 L 437.765 40.392 L 447.461 46.3 L 451.129 46.3 L 451.172 46.3 L 451.214 46.3 L 451.257 46.3 L 451.299 46.3 L 451.342 46.3 L 451.384 46.3 L 451.427 46.299 L 451.469 46.299 L 451.511 46.299 L 451.553 46.298 L 451.595 46.298 L 451.637 46.297 L 451.679 46.296 L 451.72 46.295 L 451.762 46.295 L 451.803 46.294 L 451.845 46.293 L 451.886 46.292 L 451.928 46.291 L 451.969 46.29 L 452.01 46.289 L 452.051 46.288 L 452.092 46.287 L 452.133 46.285 L 452.174 46.284 L 452.215 46.282 L 452.255 46.281 L 452.296 46.279 L 452.337 46.278 L 452.377 46.276 L 452.417 46.274 L 452.458 46.273 L 452.497 46.271 L 452.538 46.269 L 452.578 46.267 L 452.618 46.265 L 452.657 46.263 L 452.697 46.261 L 452.737 46.258 L 452.777 46.256 L 452.816 46.254 L 452.855 46.251 L 452.895 46.249 L 452.934 46.246 L 452.974 46.244 L 453.012 46.241 L 453.052 46.238 L 453.09 46.236 L 453.13 46.233 L 453.168 46.23 L 453.207 46.227 L 453.246 46.224 L 453.284 46.221 L 453.323 46.217 L 453.361 46.214 L 453.4 46.211 L 453.438 46.207 L 453.476 46.204 L 453.514 46.2 L 453.552 46.197 L 453.59 46.193 L 453.627 46.189 L 453.665 46.186 L 453.703 46.182 L 453.741 46.178 L 453.778 46.174 L 453.816 46.17 L 453.853 46.165 L 453.89 46.161 L 453.927 46.157 L 453.964 46.153 L 454.001 46.148 L 454.038 46.143 L 454.075 46.139 L 454.112 46.134 L 454.149 46.129 L 454.186 46.124 L 454.222 46.119 L 454.258 46.114 L 454.295 46.11 L 454.331 46.104 L 454.367 46.099 L 454.403 46.094 L 454.439 46.088 L 454.475 46.083 L 454.511 46.077 L 454.547 46.072 L 454.583 46.066 L 454.619 46.06 L 454.654 46.054 L 454.689 46.049 L 454.725 46.043 L 454.76 46.036 L 454.796 46.03 L 454.83 46.024 L 454.866 46.018 L 454.901 46.011 L 454.936 46.005 L 454.97 45.998 L 455.005 45.991 L 455.04 45.985 L 455.074 45.978 L 455.109 45.971 L 455.144 45.964 L 455.178 45.957 L 455.212 45.95 L 455.246 45.942 L 455.28 45.935 L 455.314 45.928 L 455.348 45.92 L 455.382 45.913 L 455.416 45.905 L 455.45 45.897 L 455.483 45.889 L 455.517 45.881 L 455.55 45.873 L 455.584 45.865 L 455.617 45.857 L 455.65 45.848 L 455.683 45.84 L 455.717 45.832 L 455.749 45.823 L 455.782 45.815 L 455.815 45.806 L 455.848 45.797 L 455.88 45.788 L 455.913 45.779 L 455.946 45.77 L 455.978 45.76 L 456.01 45.751 L 456.042 45.742 L 456.075 45.732 L 456.107 45.723 L 456.139 45.713 L 456.171 45.704 L 456.203 45.694 L 456.234 45.684 L 456.266 45.674 L 456.298 45.664 L 456.329 45.653 L 456.36 45.643 L 456.392 45.633 L 456.423 45.622 L 456.454 45.611 L 456.485 45.601 L 456.516 45.59 L 456.547 45.579 L 456.578 45.568 L 456.609 45.557 L 456.64 45.546 L 456.671 45.534 L 456.701 45.523 L 456.732 45.512 L 456.762 45.5 L 456.792 45.488 L 456.822 45.476 L 456.853 45.465 L 456.883 45.452 L 456.913 45.44 L 456.942 45.428 L 456.972 45.416 L 457.002 45.403 L 457.032 45.391 L 457.061 45.378 L 457.091 45.366 L 457.12 45.353 L 457.15 45.34 L 457.179 45.327 L 457.208 45.314 L 457.237 45.3 L 457.266 45.287 L 457.295 45.274 L 457.324 45.26 L 457.353 45.247 L 457.381 45.233 L 457.41 45.219 L 457.438 45.205 L 457.467 45.191 L 457.495 45.176 L 457.524 45.162 L 457.552 45.148 L 457.58 45.133 L 457.608 45.119 L 457.636 45.104 L 457.664 45.089 L 457.692 45.074 L 457.719 45.059 L 457.747 45.044 L 457.774 45.029 L 457.802 45.013 L 457.829 44.998 L 457.857 44.982 L 457.884 44.966 L 457.911 44.951 L 457.938 44.935 L 457.965 44.919 L 457.992 44.903 L 458.019 44.886 L 458.046 44.87 L 458.072 44.853 L 458.099 44.836 L 458.125 44.82 L 458.152 44.803 L 458.178 44.786 L 458.204 44.769 L 458.23 44.752 L 458.256 44.734 L 458.282 44.717 L 458.308 44.699 L 458.334 44.681 L 458.36 44.664 L 458.386 44.646 L 458.411 44.628 L 458.437 44.609 L 458.462 44.591 L 458.488 44.573 L 458.513 44.555 L 458.538 44.536 L 458.563 44.517 L 458.588 44.498 L 458.613 44.479 L 458.638 44.46 L 458.663 44.441 L 458.688 44.421 L 458.712 44.402 L 458.737 44.382 L 458.761 44.363 L 458.786 44.343 L 458.81 44.323 L 458.834 44.303 L 458.859 44.283 L 458.883 44.262 L 458.907 44.242 L 458.931 44.221 L 458.954 44.201 L 458.978 44.18 L 459.002 44.159 L 459.025 44.138 L 459.049 44.116 L 459.072 44.095 L 459.096 44.074 L 459.119 44.052 L 459.142 44.03 L 459.165 44.008 L 459.188 43.986 L 459.211 43.964 L 459.234 43.942 L 459.257 43.92 L 459.28 43.897 L 459.302 43.874 L 459.325 43.852 L 459.347 43.829 L 459.369 43.806 L 459.392 43.783 L 459.414 43.759 L 459.436 43.736 L 459.458 43.712 L 459.48 43.689 L 459.502 43.665 L 459.524 43.641 L 459.546 43.617 L 459.567 43.593 L 459.589 43.569 L 459.61 43.545 L 459.631 43.521 L 459.653 43.497 L 459.674 43.472 L 459.695 43.448 L 459.716 43.423 L 459.737 43.399 L 459.758 43.374 L 459.779 43.349 L 459.799 43.324 L 459.82 43.299 L 459.84 43.274 L 459.861 43.249 L 459.881 43.223 L 459.901 43.198 L 459.921 43.173 L 459.941 43.147 L 459.962 43.121 L 459.981 43.096 L 460.001 43.07 L 460.021 43.044 L 460.04 43.018 L 460.06 42.992 L 460.079 42.966 L 460.099 42.94 L 460.118 42.913 L 460.138 42.887 L 460.156 42.86 L 460.176 42.834 L 460.195 42.807 L 460.213 42.78 L 460.232 42.753 L 460.251 42.726 L 460.269 42.7 L 460.288 42.672 L 460.306 42.645 L 460.325 42.618 L 460.343 42.591 L 460.361 42.563 L 460.379 42.535 L 460.397 42.508 L 460.415 42.48 L 460.433 42.452 L 460.451 42.424 L 460.468 42.396 L 460.486 42.368 L 460.503 42.34 L 460.521 42.312 L 460.538 42.284 L 460.555 42.255 L 460.572 42.227 L 460.589 42.198 L 460.606 42.169 L 460.623 42.14 L 460.64 42.112 L 460.657 42.083 L 460.673 42.054 L 460.69 42.025 L 460.706 41.995 L 460.723 41.966 L 460.739 41.937 L 460.755 41.907 L 460.771 41.878 L 460.787 41.848 L 460.803 41.818 L 460.819 41.789 L 460.834 41.759 L 460.85 41.728 L 460.866 41.698 L 460.882 41.668 L 460.897 41.638 L 460.912 41.608 L 460.927 41.577 L 460.942 41.547 L 460.957 41.516 L 460.972 41.486 L 460.987 41.455 L 461.002 41.424 L 461.017 41.393 L 461.031 41.362 L 461.046 41.331 L 461.061 41.299 L 461.075 41.268 L 461.089 41.237 L 461.103 41.205 L 461.118 41.174 L 461.132 41.142 L 461.145 41.11 L 461.159 41.078 L 461.173 41.046 L 461.187 41.014 L 461.2 40.982 L 461.214 40.95 L 461.227 40.918 L 461.24 40.886 L 461.254 40.853 L 461.267 40.821 L 461.28 40.788 L 461.293 40.755 L 461.306 40.722 L 461.319 40.69 L 461.331 40.657 L 461.344 40.624 L 461.357 40.591 L 461.369 40.557 L 461.382 40.524 L 461.394 40.49 L 461.406 40.457 L 461.418 40.424 L 461.43 40.39 L 461.442 40.356 L 461.454 40.322 L 461.466 40.288 L 461.477 40.254 L 461.489 40.22 L 461.5 40.186 L 461.512 40.152 L 461.523 40.117 L 461.535 40.083 L 461.546 40.048 L 461.557 40.014 L 461.568 39.979 L 461.579 39.944 L 461.589 39.909 L 461.601 39.874 L 461.611 39.839 L 461.622 39.804 L 461.632 39.769 L 461.643 39.733 L 461.653 39.698 L 461.663 39.662 L 461.673 39.627 L 461.683 39.591 L 461.693 39.556 L 461.703 39.52 L 461.713 39.484 L 461.723 39.448 L 461.732 39.412 L 461.742 39.375 L 461.751 39.339 L 461.76 39.303 L 461.77 39.266 L 461.779 39.23 L 461.788 39.193 L 461.797 39.156 L 461.806 39.12 L 461.815 39.083 L 461.824 39.046 L 461.832 39.009 L 461.841 38.972 L 461.849 38.934 L 461.858 38.897 L 461.866 38.859 L 461.874 38.822 L 461.883 38.784 L 461.891 38.747 L 461.899 38.709 L 461.906 38.671 L 461.914 38.633 L 461.922 38.595 L 461.93 38.557 L 461.937 38.519 L 461.945 38.48 L 461.952 38.442 L 461.96 38.404 L 461.967 38.365 L 461.974 38.326 L 461.981 38.287 L 461.988 38.249 L 461.994 38.21 L 462.001 38.171 L 462.008 38.132 L 462.015 38.093 L 462.021 38.053 L 462.028 38.014 L 462.034 37.974 L 462.04 37.935 L 462.046 37.895 L 462.052 37.856 L 462.059 37.816 L 462.064 37.776 L 462.07 37.736 L 462.076 37.696 L 462.081 37.656 L 462.087 37.616 L 462.092 37.576 L 462.098 37.535 L 462.103 37.495 L 462.108 37.454 L 462.114 37.414 L 462.119 37.373 L 462.124 37.332 L 462.129 37.291 L 462.133 37.25 L 462.138 37.209 L 462.143 37.168 L 462.147 37.126 L 462.151 37.085 L 462.156 37.044 L 462.16 37.002 L 462.164 36.961 L 462.169 36.919 L 462.172 36.877 L 462.176 36.835 L 462.18 36.793 L 462.184 36.751 L 462.188 36.709 L 462.191 36.667 L 462.195 36.624 L 462.198 36.582 L 462.202 36.54 L 462.205 36.497 L 462.208 36.454 L 462.211 36.411 L 462.214 36.369 L 462.217 36.326 L 462.219 36.282 L 462.222 36.239 L 462.225 36.196 L 462.228 36.153 L 462.23 36.11 L 462.232 36.066 L 462.235 36.023 L 462.237 35.979 L 462.239 35.935 L 462.241 35.891 L 462.243 35.848 L 462.245 35.804 L 462.247 35.76 L 462.248 35.715 L 462.25 35.671 L 462.251 35.627 L 462.253 35.583 L 462.254 35.538 L 462.255 35.493 L 462.257 35.449 L 462.258 35.404 L 462.259 35.359 L 462.259 35.314 L 462.26 35.269 L 462.261 35.224 L 462.262 35.179 L 462.262 35.134 L 462.263 35.088 L 462.263 35.043 L 462.263 34.997 L 462.264 34.952 L 462.264 34.906 L 462.264 34.86 L 462.264 34.816 L 462.264 34.773 L 462.263 34.729 L 462.263 34.686 L 462.263 34.642 L 462.262 34.599 L 462.262 34.556 L 462.261 34.513 L 462.26 34.47 L 462.26 34.427 L 462.259 34.384 L 462.258 34.341 L 462.257 34.298 L 462.256 34.256 L 462.255 34.213 L 462.253 34.171 L 462.252 34.128 L 462.25 34.086 L 462.249 34.044 L 462.248 34.002 L 462.246 33.959 L 462.244 33.918 L 462.242 33.876 L 462.24 33.834 L 462.238 33.792 L 462.236 33.75 L 462.234 33.709 L 462.232 33.667 L 462.229 33.626 L 462.227 33.585 L 462.224 33.543 L 462.222 33.503 L 462.219 33.461 L 462.217 33.42 L 462.214 33.379 L 462.211 33.339 L 462.208 33.298 L 462.205 33.257 L 462.202 33.217 L 462.198 33.176 L 462.195 33.136 L 462.192 33.095 L 462.189 33.055 L 462.185 33.015 L 462.181 32.975 L 462.177 32.935 L 462.174 32.895 L 462.17 32.855 L 462.166 32.815 L 462.162 32.775 L 462.158 32.736 L 462.154 32.696 L 462.149 32.657 L 462.145 32.618 L 462.14 32.578 L 462.136 32.539 L 462.131 32.5 L 462.127 32.461 L 462.122 32.422 L 462.117 32.383 L 462.112 32.344 L 462.107 32.306 L 462.102 32.267 L 462.097 32.228 L 462.091 32.19 L 462.086 32.151 L 462.081 32.113 L 462.075 32.075 L 462.07 32.037 L 462.064 31.999 L 462.058 31.961 L 462.052 31.923 L 462.046 31.885 L 462.04 31.848 L 462.034 31.81 L 462.028 31.772 L 462.022 31.735 L 462.015 31.697 L 462.009 31.66 L 462.003 31.623 L 461.996 31.586 L 461.989 31.548 L 461.983 31.511 L 461.976 31.475 L 461.969 31.438 L 461.962 31.401 L 461.955 31.364 L 461.948 31.328 L 461.941 31.291 L 461.933 31.255 L 461.926 31.219 L 461.919 31.182 L 461.911 31.146 L 461.903 31.11 L 461.896 31.074 L 461.888 31.038 L 461.88 31.002 L 461.872 30.967 L 461.864 30.931 L 461.856 30.895 L 461.848 30.86 L 461.839 30.824 L 461.831 30.789 L 461.822 30.754 L 461.814 30.718 L 461.805 30.683 L 461.797 30.648 L 461.788 30.613 L 461.779 30.579 L 461.77 30.544 L 461.761 30.509 L 461.752 30.474 L 461.743 30.44 L 461.733 30.406 L 461.724 30.371 L 461.715 30.337 L 461.705 30.303 L 461.696 30.268 L 461.686 30.234 L 461.676 30.2 L 461.666 30.167 L 461.656 30.133 L 461.646 30.099 L 461.637 30.065 L 461.626 30.032 L 461.616 29.998 L 461.606 29.965 L 461.595 29.932 L 461.585 29.898 L 461.574 29.865 L 461.563 29.832 L 461.553 29.799 L 461.542 29.766 L 461.531 29.734 L 461.52 29.701 L 461.509 29.668 L 461.498 29.636 L 461.487 29.603 L 461.476 29.57 L 461.464 29.538 L 461.453 29.506 L 461.441 29.474 L 461.43 29.442 L 461.418 29.41 L 461.406 29.378 L 461.394 29.346 L 461.382 29.314 L 461.37 29.283 L 461.358 29.251 L 461.346 29.22 L 461.333 29.188 L 461.321 29.157 L 461.309 29.125 L 461.296 29.094 L 461.284 29.063 L 461.271 29.032 L 461.258 29.001 L 461.245 28.97 L 461.232 28.939 L 461.219 28.909 L 461.206 28.878 L 461.193 28.848 L 461.18 28.817 L 461.166 28.787 L 461.153 28.757 L 461.14 28.726 L 461.126 28.696 L 461.112 28.666 L 461.098 28.636 L 461.085 28.606 L 461.071 28.577 L 461.057 28.547 L 461.043 28.517 L 461.029 28.488 L 461.014 28.458 L 461 28.429 L 460.985 28.4 L 460.971 28.37 L 460.957 28.341 L 460.942 28.312 L 460.927 28.283 L 460.912 28.254 L 460.898 28.225 L 460.883 28.197 L 460.868 28.168 L 460.852 28.14 L 460.837 28.111 L 460.822 28.083 L 460.806 28.054 L 460.791 28.026 L 460.775 27.998 L 460.76 27.97 L 460.744 27.942 L 460.728 27.914 L 460.712 27.886 L 460.696 27.859 L 460.68 27.831 L 460.664 27.803 L 460.648 27.776 L 460.632 27.748 L 460.615 27.721 L 460.599 27.694 L 460.582 27.666 L 460.566 27.639 L 460.549 27.612 L 460.532 27.585 L 460.516 27.558 L 460.499 27.532 L 460.482 27.505 L 460.464 27.479 L 460.447 27.452 L 460.43 27.426 L 460.413 27.399 L 460.395 27.373 L 460.378 27.347 L 460.36 27.32 L 460.343 27.294 L 460.325 27.268 L 460.307 27.243 L 460.289 27.217 L 460.271 27.191 L 460.253 27.166 L 460.235 27.14 L 460.217 27.115 L 460.198 27.089 L 460.18 27.064 L 460.161 27.039 L 460.143 27.013 L 460.124 26.989 L 460.105 26.964 L 460.087 26.939 L 460.068 26.914 L 460.049 26.889 L 460.03 26.865 L 460.011 26.84 L 459.992 26.815 L 459.972 26.791 L 459.953 26.767 L 459.933 26.742 L 459.914 26.718 L 459.894 26.694 L 459.874 26.67 L 459.855 26.646 L 459.835 26.622 L 459.815 26.599 L 459.795 26.575 L 459.775 26.552 L 459.754 26.528 L 459.734 26.505 L 459.714 26.481 L 459.693 26.458 L 459.673 26.435 L 459.652 26.412 L 459.631 26.389 L 459.611 26.366 L 459.59 26.343 L 459.569 26.32 L 459.548 26.298 L 459.527 26.275 L 459.506 26.253 L 459.485 26.231 L 459.463 26.209 L 459.442 26.187 L 459.421 26.165 L 459.399 26.143 L 459.377 26.121 L 459.355 26.1 L 459.334 26.079 L 459.312 26.057 L 459.29 26.036 L 459.268 26.015 L 459.246 25.994 L 459.224 25.974 L 459.202 25.953 L 459.18 25.933 L 459.157 25.912 L 459.135 25.892 L 459.112 25.872 L 459.09 25.852 L 459.067 25.832 L 459.044 25.812 L 459.021 25.793 L 458.999 25.773 L 458.976 25.754 L 458.953 25.734 L 458.93 25.715 L 458.906 25.696 L 458.883 25.677 L 458.86 25.658 L 458.837 25.64 L 458.813 25.621 L 458.789 25.603 L 458.766 25.585 L 458.742 25.566 L 458.718 25.548 L 458.695 25.53 L 458.671 25.512 L 458.646 25.495 L 458.623 25.477 L 458.598 25.459 L 458.574 25.442 L 458.55 25.425 L 458.525 25.408 L 458.501 25.391 L 458.477 25.373 L 458.452 25.357 L 458.427 25.34 L 458.402 25.323 L 458.378 25.307 L 458.353 25.291 L 458.328 25.274 L 458.303 25.258 L 458.277 25.242 L 458.253 25.226 L 458.227 25.21 L 458.202 25.195 L 458.176 25.179 L 458.151 25.163 L 458.125 25.148 L 458.1 25.133 L 458.074 25.118 L 458.048 25.102 L 458.022 25.088 L 457.996 25.073 L 457.97 25.058 L 457.944 25.043 L 457.918 25.029 L 457.892 25.015 L 457.865 25 L 457.839 24.986 L 457.813 24.972 L 457.786 24.958 L 457.759 24.944 L 457.733 24.93 L 457.706 24.917 L 457.679 24.903 L 457.652 24.889 L 457.625 24.876 L 457.598 24.863 L 457.571 24.85 L 457.544 24.837 L 457.516 24.824 L 457.489 24.811 L 457.462 24.798 L 457.434 24.786 L 457.407 24.773 L 457.379 24.76 L 457.351 24.748 L 457.323 24.736 L 457.296 24.724 L 457.267 24.711 L 457.239 24.7 L 457.212 24.688 L 457.183 24.676 L 457.155 24.664 L 457.126 24.653 L 457.098 24.641 L 457.07 24.63 L 457.041 24.619 L 457.013 24.607 L 456.984 24.596 L 456.955 24.585 L 456.926 24.575 L 456.897 24.564 L 456.868 24.553 L 456.839 24.543 L 456.81 24.532 L 456.781 24.522 L 456.751 24.511 L 456.722 24.501 L 456.692 24.491 L 456.663 24.481 L 456.633 24.471 L 456.604 24.461 L 456.574 24.451 L 456.544 24.441 L 456.514 24.432 L 456.484 24.423 L 456.454 24.413 L 456.424 24.404 L 456.394 24.395 L 456.364 24.386 L 456.333 24.377 L 456.303 24.368 L 456.272 24.359 L 456.241 24.35 L 456.211 24.341 L 456.18 24.333 L 456.149 24.324 L 456.119 24.316 L 456.088 24.308 L 456.056 24.299 L 456.025 24.291 L 455.994 24.283 L 455.963 24.275 L 455.932 24.267 L 455.9 24.26 L 455.869 24.252 L 455.837 24.244 L 455.806 24.236 L 455.774 24.229 L 455.742 24.222 L 455.71 24.214 L 455.678 24.207 L 455.646 24.2 L 455.614 24.193 L 455.582 24.186 L 455.55 24.179 L 455.517 24.172 L 455.485 24.165 L 455.453 24.159 L 455.42 24.152 L 455.387 24.146 L 455.355 24.139 L 455.322 24.133 L 455.289 24.127 L 455.256 24.121 L 455.223 24.115 L 455.19 24.109 L 455.157 24.103 L 455.124 24.097 L 455.09 24.091 L 455.057 24.085 L 455.024 24.08 L 454.99 24.074 L 454.957 24.069 L 454.923 24.063 L 454.889 24.058 L 454.855 24.053 L 454.822 24.048 L 454.787 24.043 L 454.754 24.038 L 454.719 24.033 L 454.685 24.028 L 454.651 24.023 L 454.617 24.018 L 454.582 24.014 L 454.548 24.009 L 454.513 24.005 L 454.479 24 L 454.444 23.996 L 454.409 23.991 L 454.374 23.987 L 454.339 23.983 L 454.304 23.979 L 454.269 23.975 L 454.234 23.971 L 454.199 23.967 L 454.163 23.964 L 454.128 23.96 L 454.093 23.956 L 454.057 23.953 L 454.022 23.949 L 453.986 23.946 L 453.95 23.942 L 453.914 23.939 L 453.878 23.936 L 453.842 23.933 L 453.806 23.929 L 453.77 23.926 L 453.734 23.923 L 453.698 23.92 L 453.661 23.918 L 453.625 23.915 L 453.588 23.912 L 453.552 23.909 L 453.515 23.907 L 453.479 23.904 L 453.442 23.902 L 453.405 23.899 L 453.368 23.897 L 453.331 23.895 L 453.294 23.893 L 453.256 23.891 L 453.219 23.888 L 453.182 23.886 L 453.145 23.885 L 453.107 23.882 L 453.069 23.881 L 453.032 23.879 L 452.994 23.877 L 452.957 23.876 L 452.918 23.874 L 452.881 23.872 L 452.843 23.871 L 452.804 23.87 L 452.766 23.868 L 452.728 23.867 L 452.69 23.866 L 452.652 23.864 L 452.613 23.863 L 452.574 23.862 L 452.536 23.861 L 452.497 23.86 L 452.459 23.859 L 452.42 23.858 L 452.381 23.857 L 452.342 23.857 L 452.303 23.856 L 452.263 23.855 L 452.224 23.855 L 452.185 23.854 L 452.146 23.854 L 452.106 23.853 L 452.067 23.853 L 452.027 23.852 L 451.987 23.852 L 451.948 23.852 L 451.908 23.852 L 451.868 23.852 L 451.828 23.852 L 451.788 23.852 L 447.497 23.852 L 447.461 27.232 L 437.77 16.483 L 437.77 27.833 Z " fill-rule="evenodd" fill="rgb(0,136,119)"/></g><g id="Contorno-em-D"><path d=" M 448.813 27.232 L 447.461 27.232 L 447.461 23.424 L 453.249 23.424 C 456.667 23.424 459.268 24.397 461.05 26.343 C 462.833 28.289 463.724 31.128 463.724 34.86 C 463.724 38.773 462.781 41.732 460.896 43.736 C 459.011 45.74 456.242 46.742 452.589 46.742 L 447.461 46.742 L 447.461 45.306 L 448.956 45.306 L 448.956 45.307 L 452.501 45.307 C 458.899 45.307 462.098 41.846 462.098 34.924 C 462.098 31.585 461.319 29.073 459.761 27.388 C 458.203 25.703 455.915 24.86 452.897 24.86 L 448.813 24.86 L 448.813 27.232 Z  M 448.518 40.392 L 447.756 40.392 L 447.756 32.69 L 448.518 32.69 L 448.518 40.392 Z " fill="rgb(0,136,119)"/></g><g id="Ponteiro-Caule"><path d=" M 441.277 24.86 L 447.095 35.591 L 450.089 40.392 L 455.021 49.048 L 456.147 50.174 L 456.147 48.582 L 449.189 37.483 L 446.185 32.69 L 441.277 24.86 Z " fill-rule="evenodd" fill="rgb(0,136,119)"/></g><g id="Grupo"><path d=" M 449.018 36.241 C 448.851 35.754 448.321 35.495 447.835 35.662 C 447.349 35.829 447.089 36.359 447.256 36.845 C 447.423 37.331 447.953 37.59 448.439 37.424 C 448.925 37.257 449.185 36.727 449.018 36.241 Z " fill="rgb(255,255,255)"/><path d=" M 448.149 35.132 L 448.166 35.132 L 448.184 35.132 L 448.201 35.133 L 448.218 35.134 L 448.235 35.135 L 448.252 35.136 L 448.27 35.138 L 448.287 35.14 L 448.303 35.142 L 448.32 35.144 L 448.337 35.146 L 448.354 35.149 L 448.371 35.151 L 448.388 35.154 L 448.405 35.158 L 448.422 35.161 L 448.438 35.164 L 448.454 35.168 L 448.472 35.172 L 448.487 35.176 L 448.504 35.181 L 448.521 35.185 L 448.537 35.19 L 448.553 35.195 L 448.569 35.2 L 448.586 35.205 L 448.602 35.21 L 448.618 35.216 L 448.633 35.222 L 448.649 35.228 L 448.664 35.234 L 448.681 35.241 L 448.696 35.247 L 448.711 35.254 L 448.727 35.261 L 448.742 35.268 L 448.757 35.276 L 448.773 35.283 L 448.787 35.291 L 448.802 35.299 L 448.817 35.307 L 448.832 35.315 L 448.847 35.323 L 448.861 35.332 L 448.876 35.341 L 448.89 35.35 L 448.904 35.359 L 448.918 35.368 L 448.933 35.377 L 448.946 35.387 L 448.96 35.397 L 448.974 35.407 L 448.987 35.417 L 449.001 35.427 L 449.015 35.438 L 449.027 35.448 L 449.041 35.459 L 449.054 35.47 L 449.067 35.481 L 449.08 35.492 L 449.092 35.504 L 449.105 35.516 L 449.117 35.527 L 449.129 35.539 L 449.141 35.552 L 449.154 35.564 L 449.165 35.576 L 449.177 35.589 L 449.189 35.602 L 449.2 35.614 L 449.212 35.627 L 449.222 35.641 L 449.233 35.654 L 449.244 35.667 L 449.255 35.681 L 449.265 35.695 L 449.276 35.709 L 449.286 35.723 L 449.296 35.737 L 449.306 35.752 L 449.316 35.766 L 449.325 35.781 L 449.335 35.796 L 449.344 35.811 L 449.353 35.826 L 449.361 35.841 L 449.37 35.857 L 449.379 35.872 L 449.387 35.887 L 449.395 35.903 L 449.403 35.919 L 449.411 35.935 L 449.418 35.951 L 449.426 35.968 L 449.433 35.984 L 449.44 36.001 L 449.447 36.017 L 449.454 36.034 L 449.459 36.051 L 449.466 36.068 L 449.472 36.085 L 449.478 36.102 L 449.483 36.119 L 449.489 36.136 L 449.494 36.154 L 449.499 36.171 L 449.503 36.189 L 449.508 36.206 L 449.512 36.223 L 449.515 36.241 L 449.519 36.258 L 449.522 36.276 L 449.526 36.293 L 449.529 36.31 L 449.531 36.328 L 449.534 36.345 L 449.537 36.363 L 449.539 36.38 L 449.541 36.398 L 449.542 36.415 L 449.544 36.433 L 449.545 36.45 L 449.546 36.468 L 449.547 36.485 L 449.548 36.502 L 449.548 36.52 L 449.549 36.537 L 449.549 36.554 L 449.547 36.572 L 449.547 36.589 L 449.547 36.606 L 449.546 36.623 L 449.545 36.641 L 449.544 36.658 L 449.542 36.675 L 449.54 36.692 L 449.538 36.709 L 449.536 36.726 L 449.534 36.743 L 449.531 36.76 L 449.528 36.777 L 449.526 36.793 L 449.523 36.81 L 449.519 36.827 L 449.516 36.843 L 449.512 36.86 L 449.508 36.877 L 449.504 36.893 L 449.499 36.91 L 449.495 36.926 L 449.49 36.942 L 449.485 36.959 L 449.48 36.975 L 449.475 36.991 L 449.469 37.007 L 449.464 37.023 L 449.458 37.039 L 449.451 37.054 L 449.446 37.07 L 449.439 37.086 L 449.432 37.101 L 449.426 37.117 L 449.419 37.132 L 449.412 37.147 L 449.404 37.163 L 449.397 37.178 L 449.389 37.193 L 449.381 37.208 L 449.373 37.223 L 449.365 37.237 L 449.356 37.252 L 449.348 37.266 L 449.339 37.281 L 449.331 37.295 L 449.322 37.309 L 449.312 37.324 L 449.302 37.338 L 449.293 37.352 L 449.283 37.365 L 449.273 37.379 L 449.263 37.393 L 449.253 37.406 L 449.243 37.42 L 449.231 37.433 L 449.221 37.446 L 449.21 37.459 L 449.198 37.472 L 449.187 37.485 L 449.176 37.498 L 449.164 37.51 L 449.152 37.523 L 449.14 37.535 L 449.128 37.547 L 449.116 37.559 L 449.104 37.57 L 449.091 37.582 L 449.079 37.594 L 449.066 37.605 L 449.053 37.616 L 449.039 37.628 L 449.026 37.639 L 449.013 37.649 L 448.999 37.66 L 448.985 37.671 L 448.971 37.681 L 448.956 37.691 L 448.943 37.701 L 448.928 37.711 L 448.913 37.721 L 448.899 37.73 L 448.884 37.74 L 448.87 37.749 L 448.855 37.758 L 448.839 37.767 L 448.823 37.776 L 448.808 37.784 L 448.793 37.792 L 448.777 37.8 L 448.76 37.808 L 448.745 37.816 L 448.728 37.824 L 448.713 37.831 L 448.696 37.838 L 448.679 37.845 L 448.662 37.852 L 448.646 37.859 L 448.629 37.865 L 448.612 37.871 L 448.595 37.877 L 448.578 37.883 L 448.56 37.888 L 448.543 37.894 L 448.527 37.899 L 448.509 37.904 L 448.492 37.908 L 448.474 37.913 L 448.456 37.917 L 448.44 37.921 L 448.422 37.925 L 448.405 37.928 L 448.387 37.931 L 448.37 37.934 L 448.352 37.937 L 448.334 37.94 L 448.317 37.942 L 448.3 37.944 L 448.282 37.946 L 448.265 37.948 L 448.247 37.949 L 448.229 37.951 L 448.213 37.952 L 448.195 37.953 L 448.178 37.953 L 448.16 37.953 L 448.143 37.954 L 448.126 37.953 L 448.109 37.953 L 448.091 37.953 L 448.074 37.952 L 448.057 37.951 L 448.039 37.95 L 448.023 37.949 L 448.005 37.947 L 447.988 37.945 L 447.971 37.944 L 447.954 37.942 L 447.937 37.939 L 447.92 37.937 L 447.903 37.934 L 447.887 37.931 L 447.869 37.928 L 447.853 37.924 L 447.836 37.921 L 447.82 37.917 L 447.803 37.913 L 447.787 37.909 L 447.77 37.905 L 447.754 37.9 L 447.738 37.895 L 447.722 37.89 L 447.705 37.886 L 447.689 37.88 L 447.673 37.875 L 447.657 37.869 L 447.641 37.863 L 447.626 37.857 L 447.61 37.851 L 447.594 37.844 L 447.579 37.838 L 447.564 37.831 L 447.548 37.824 L 447.533 37.817 L 447.517 37.81 L 447.502 37.802 L 447.488 37.794 L 447.472 37.787 L 447.457 37.779 L 447.442 37.77 L 447.428 37.762 L 447.413 37.753 L 447.399 37.745 L 447.385 37.736 L 447.37 37.727 L 447.357 37.717 L 447.342 37.708 L 447.328 37.698 L 447.314 37.688 L 447.301 37.678 L 447.287 37.668 L 447.274 37.658 L 447.26 37.648 L 447.247 37.637 L 447.234 37.626 L 447.221 37.615 L 447.208 37.604 L 447.195 37.593 L 447.182 37.581 L 447.17 37.57 L 447.158 37.558 L 447.146 37.546 L 447.133 37.534 L 447.121 37.521 L 447.109 37.509 L 447.098 37.496 L 447.086 37.484 L 447.075 37.471 L 447.063 37.458 L 447.052 37.445 L 447.041 37.431 L 447.031 37.418 L 447.02 37.404 L 447.009 37.39 L 446.999 37.376 L 446.989 37.362 L 446.978 37.348 L 446.968 37.334 L 446.959 37.319 L 446.949 37.304 L 446.94 37.29 L 446.931 37.275 L 446.922 37.259 L 446.913 37.244 L 446.904 37.229 L 446.896 37.213 L 446.888 37.198 L 446.879 37.182 L 446.872 37.166 L 446.864 37.15 L 446.857 37.134 L 446.849 37.117 L 446.841 37.101 L 446.835 37.085 L 446.828 37.068 L 446.821 37.051 L 446.815 37.034 L 446.809 37.017 L 446.803 37 L 446.797 36.983 L 446.791 36.966 L 446.786 36.949 L 446.781 36.931 L 446.776 36.914 L 446.771 36.897 L 446.767 36.879 L 446.763 36.862 L 446.759 36.845 L 446.756 36.827 L 446.752 36.81 L 446.749 36.792 L 446.746 36.775 L 446.743 36.757 L 446.74 36.74 L 446.738 36.722 L 446.736 36.705 L 446.734 36.688 L 446.732 36.67 L 446.731 36.653 L 446.729 36.635 L 446.728 36.618 L 446.727 36.601 L 446.727 36.583 L 446.726 36.566 L 446.726 36.548 L 446.726 36.531 L 446.727 36.514 L 446.727 36.496 L 446.728 36.479 L 446.729 36.462 L 446.73 36.445 L 446.731 36.428 L 446.732 36.41 L 446.735 36.393 L 446.736 36.376 L 446.739 36.359 L 446.741 36.342 L 446.743 36.325 L 446.746 36.309 L 446.749 36.292 L 446.752 36.275 L 446.756 36.258 L 446.759 36.242 L 446.762 36.225 L 446.767 36.208 L 446.771 36.192 L 446.776 36.175 L 446.78 36.159 L 446.785 36.143 L 446.789 36.127 L 446.795 36.111 L 446.8 36.094 L 446.805 36.079 L 446.811 36.062 L 446.817 36.047 L 446.823 36.031 L 446.829 36.015 L 446.835 36 L 446.842 35.984 L 446.848 35.969 L 446.856 35.953 L 446.863 35.938 L 446.87 35.923 L 446.878 35.907 L 446.886 35.892 L 446.894 35.877 L 446.902 35.863 L 446.91 35.848 L 446.918 35.833 L 446.927 35.819 L 446.935 35.804 L 446.944 35.79 L 446.953 35.776 L 446.963 35.761 L 446.972 35.748 L 446.982 35.733 L 446.992 35.72 L 447.002 35.706 L 447.011 35.692 L 447.022 35.679 L 447.032 35.666 L 447.043 35.652 L 447.053 35.639 L 447.065 35.626 L 447.076 35.613 L 447.087 35.6 L 447.098 35.588 L 447.11 35.575 L 447.122 35.563 L 447.134 35.551 L 447.146 35.539 L 447.159 35.526 L 447.171 35.515 L 447.184 35.503 L 447.196 35.492 L 447.209 35.48 L 447.222 35.469 L 447.236 35.458 L 447.249 35.447 L 447.262 35.436 L 447.276 35.425 L 447.289 35.415 L 447.304 35.404 L 447.318 35.394 L 447.332 35.384 L 447.346 35.374 L 447.361 35.365 L 447.376 35.355 L 447.39 35.346 L 447.405 35.336 L 447.42 35.327 L 447.436 35.319 L 447.452 35.31 L 447.467 35.301 L 447.482 35.293 L 447.498 35.285 L 447.514 35.277 L 447.53 35.269 L 447.546 35.262 L 447.562 35.254 L 447.579 35.247 L 447.596 35.24 L 447.612 35.233 L 447.628 35.227 L 447.645 35.22 L 447.662 35.214 L 447.679 35.208 L 447.697 35.202 L 447.714 35.197 L 447.731 35.192 L 447.748 35.186 L 447.766 35.182 L 447.783 35.177 L 447.801 35.172 L 447.818 35.169 L 447.835 35.164 L 447.852 35.161 L 447.87 35.157 L 447.888 35.154 L 447.905 35.151 L 447.922 35.148 L 447.94 35.146 L 447.958 35.143 L 447.975 35.141 L 447.993 35.139 L 448.01 35.137 L 448.027 35.136 L 448.045 35.135 L 448.062 35.134 L 448.079 35.133 L 448.097 35.132 L 448.114 35.132 L 448.132 35.132 L 448.149 35.132 Z  M 448.122 35.611 L 448.11 35.612 L 448.099 35.612 L 448.088 35.612 L 448.076 35.613 L 448.065 35.614 L 448.053 35.615 L 448.042 35.616 L 448.03 35.617 L 448.019 35.618 L 448.007 35.62 L 447.996 35.622 L 447.984 35.624 L 447.973 35.626 L 447.961 35.628 L 447.95 35.63 L 447.939 35.633 L 447.926 35.635 L 447.915 35.638 L 447.904 35.641 L 447.892 35.644 L 447.881 35.647 L 447.869 35.651 L 447.858 35.654 L 447.847 35.658 L 447.835 35.662 L 447.824 35.665 L 447.812 35.67 L 447.801 35.674 L 447.79 35.678 L 447.779 35.683 L 447.768 35.687 L 447.758 35.692 L 447.746 35.697 L 447.736 35.702 L 447.726 35.707 L 447.715 35.712 L 447.704 35.718 L 447.694 35.723 L 447.684 35.729 L 447.674 35.735 L 447.664 35.74 L 447.654 35.746 L 447.644 35.753 L 447.635 35.758 L 447.625 35.765 L 447.615 35.771 L 447.606 35.778 L 447.596 35.784 L 447.587 35.791 L 447.578 35.798 L 447.569 35.805 L 447.559 35.812 L 447.551 35.819 L 447.542 35.826 L 447.534 35.833 L 447.525 35.841 L 447.517 35.848 L 447.508 35.856 L 447.5 35.864 L 447.491 35.872 L 447.483 35.88 L 447.476 35.887 L 447.467 35.896 L 447.459 35.904 L 447.452 35.912 L 447.445 35.92 L 447.437 35.929 L 447.429 35.937 L 447.422 35.946 L 447.415 35.955 L 447.408 35.963 L 447.401 35.972 L 447.394 35.981 L 447.388 35.99 L 447.381 35.999 L 447.374 36.008 L 447.368 36.017 L 447.362 36.027 L 447.356 36.036 L 447.35 36.046 L 447.344 36.055 L 447.338 36.065 L 447.332 36.074 L 447.327 36.084 L 447.321 36.094 L 447.316 36.104 L 447.311 36.113 L 447.306 36.123 L 447.3 36.134 L 447.296 36.144 L 447.291 36.154 L 447.287 36.164 L 447.282 36.174 L 447.278 36.184 L 447.273 36.195 L 447.27 36.205 L 447.265 36.216 L 447.262 36.226 L 447.258 36.236 L 447.254 36.247 L 447.25 36.258 L 447.247 36.268 L 447.244 36.279 L 447.241 36.29 L 447.238 36.301 L 447.235 36.312 L 447.232 36.322 L 447.23 36.333 L 447.227 36.344 L 447.225 36.355 L 447.223 36.366 L 447.221 36.377 L 447.219 36.388 L 447.217 36.4 L 447.215 36.411 L 447.214 36.422 L 447.212 36.433 L 447.211 36.444 L 447.21 36.456 L 447.209 36.467 L 447.208 36.478 L 447.207 36.49 L 447.207 36.501 L 447.206 36.512 L 447.206 36.524 L 447.206 36.535 L 447.206 36.546 L 447.206 36.558 L 447.206 36.569 L 447.206 36.581 L 447.207 36.592 L 447.208 36.604 L 447.209 36.615 L 447.21 36.627 L 447.211 36.638 L 447.212 36.65 L 447.214 36.661 L 447.215 36.673 L 447.217 36.684 L 447.219 36.696 L 447.22 36.707 L 447.222 36.719 L 447.225 36.73 L 447.227 36.742 L 447.23 36.753 L 447.233 36.764 L 447.236 36.776 L 447.239 36.788 L 447.242 36.799 L 447.245 36.811 L 447.249 36.822 L 447.253 36.833 L 447.257 36.845 L 447.26 36.856 L 447.264 36.867 L 447.268 36.879 L 447.273 36.89 L 447.278 36.901 L 447.282 36.911 L 447.287 36.922 L 447.292 36.933 L 447.297 36.944 L 447.302 36.954 L 447.307 36.965 L 447.312 36.975 L 447.318 36.986 L 447.324 36.996 L 447.329 37.006 L 447.335 37.016 L 447.341 37.026 L 447.347 37.036 L 447.354 37.046 L 447.36 37.055 L 447.366 37.065 L 447.373 37.074 L 447.379 37.084 L 447.386 37.093 L 447.392 37.102 L 447.399 37.111 L 447.406 37.12 L 447.414 37.129 L 447.421 37.138 L 447.429 37.147 L 447.436 37.155 L 447.443 37.164 L 447.45 37.172 L 447.458 37.181 L 447.466 37.189 L 447.474 37.197 L 447.483 37.205 L 447.49 37.213 L 447.498 37.22 L 447.507 37.228 L 447.515 37.235 L 447.524 37.243 L 447.532 37.251 L 447.54 37.258 L 447.55 37.265 L 447.558 37.272 L 447.566 37.279 L 447.576 37.286 L 447.585 37.292 L 447.593 37.299 L 447.603 37.305 L 447.612 37.312 L 447.621 37.318 L 447.631 37.324 L 447.64 37.33 L 447.649 37.336 L 447.659 37.342 L 447.669 37.348 L 447.678 37.353 L 447.688 37.358 L 447.698 37.364 L 447.708 37.369 L 447.718 37.374 L 447.728 37.379 L 447.738 37.384 L 447.748 37.389 L 447.759 37.393 L 447.768 37.398 L 447.779 37.402 L 447.789 37.406 L 447.8 37.41 L 447.81 37.414 L 447.821 37.418 L 447.831 37.422 L 447.842 37.426 L 447.852 37.429 L 447.863 37.433 L 447.874 37.436 L 447.885 37.439 L 447.895 37.442 L 447.906 37.445 L 447.917 37.448 L 447.928 37.45 L 447.939 37.453 L 447.95 37.455 L 447.961 37.457 L 447.972 37.459 L 447.983 37.461 L 447.994 37.463 L 448.005 37.465 L 448.017 37.466 L 448.028 37.468 L 448.039 37.469 L 448.051 37.47 L 448.062 37.471 L 448.073 37.472 L 448.085 37.472 L 448.096 37.473 L 448.107 37.474 L 448.118 37.474 L 448.129 37.474 L 448.141 37.474 L 448.153 37.474 L 448.164 37.474 L 448.175 37.473 L 448.187 37.473 L 448.198 37.472 L 448.21 37.471 L 448.222 37.47 L 448.232 37.469 L 448.244 37.468 L 448.256 37.467 L 448.267 37.465 L 448.279 37.463 L 448.29 37.462 L 448.302 37.46 L 448.314 37.457 L 448.325 37.455 L 448.336 37.453 L 448.348 37.45 L 448.36 37.447 L 448.371 37.444 L 448.382 37.441 L 448.394 37.438 L 448.405 37.435 L 448.417 37.431 L 448.428 37.427 L 448.439 37.424 L 448.451 37.42 L 448.462 37.415 L 448.473 37.411 L 448.485 37.407 L 448.495 37.402 L 448.507 37.398 L 448.517 37.393 L 448.528 37.388 L 448.539 37.383 L 448.549 37.378 L 448.56 37.373 L 448.57 37.368 L 448.58 37.362 L 448.591 37.356 L 448.6 37.351 L 448.611 37.345 L 448.62 37.339 L 448.63 37.333 L 448.64 37.327 L 448.65 37.32 L 448.659 37.314 L 448.669 37.308 L 448.679 37.301 L 448.688 37.294 L 448.697 37.287 L 448.706 37.28 L 448.715 37.274 L 448.724 37.266 L 448.733 37.259 L 448.741 37.252 L 448.75 37.244 L 448.758 37.237 L 448.767 37.229 L 448.775 37.221 L 448.784 37.214 L 448.792 37.206 L 448.799 37.198 L 448.808 37.19 L 448.815 37.182 L 448.823 37.173 L 448.83 37.165 L 448.838 37.157 L 448.846 37.148 L 448.853 37.139 L 448.86 37.131 L 448.867 37.122 L 448.873 37.113 L 448.88 37.104 L 448.887 37.095 L 448.894 37.086 L 448.9 37.077 L 448.907 37.068 L 448.913 37.059 L 448.918 37.049 L 448.925 37.04 L 448.931 37.03 L 448.937 37.021 L 448.942 37.011 L 448.948 37.001 L 448.953 36.992 L 448.959 36.982 L 448.963 36.972 L 448.969 36.962 L 448.974 36.952 L 448.979 36.942 L 448.984 36.932 L 448.988 36.921 L 448.993 36.911 L 448.996 36.901 L 449.001 36.891 L 449.005 36.88 L 449.009 36.87 L 449.013 36.859 L 449.017 36.849 L 449.02 36.838 L 449.024 36.828 L 449.027 36.817 L 449.03 36.806 L 449.034 36.795 L 449.037 36.785 L 449.039 36.774 L 449.043 36.763 L 449.045 36.752 L 449.047 36.741 L 449.049 36.73 L 449.052 36.719 L 449.054 36.708 L 449.056 36.697 L 449.057 36.686 L 449.06 36.674 L 449.061 36.663 L 449.062 36.652 L 449.063 36.641 L 449.064 36.63 L 449.065 36.618 L 449.067 36.607 L 449.068 36.596 L 449.068 36.584 L 449.068 36.573 L 449.068 36.562 L 449.069 36.55 L 449.069 36.539 L 449.068 36.527 L 449.069 36.516 L 449.068 36.505 L 449.068 36.493 L 449.067 36.482 L 449.066 36.47 L 449.065 36.459 L 449.064 36.447 L 449.063 36.435 L 449.061 36.424 L 449.059 36.413 L 449.058 36.401 L 449.056 36.389 L 449.054 36.378 L 449.052 36.367 L 449.05 36.355 L 449.048 36.343 L 449.045 36.332 L 449.042 36.321 L 449.039 36.309 L 449.036 36.298 L 449.033 36.286 L 449.029 36.275 L 449.026 36.263 L 449.022 36.252 L 449.018 36.241 L 449.014 36.229 L 449.011 36.218 L 449.006 36.207 L 449.002 36.195 L 448.997 36.185 L 448.992 36.174 L 448.988 36.163 L 448.983 36.152 L 448.978 36.141 L 448.973 36.131 L 448.967 36.12 L 448.962 36.11 L 448.957 36.099 L 448.951 36.089 L 448.945 36.079 L 448.939 36.069 L 448.934 36.059 L 448.928 36.049 L 448.921 36.04 L 448.915 36.03 L 448.909 36.02 L 448.902 36.011 L 448.895 36.002 L 448.889 35.992 L 448.882 35.983 L 448.876 35.974 L 448.868 35.965 L 448.86 35.956 L 448.853 35.947 L 448.846 35.939 L 448.839 35.93 L 448.831 35.921 L 448.824 35.913 L 448.816 35.905 L 448.808 35.897 L 448.8 35.889 L 448.792 35.881 L 448.785 35.873 L 448.776 35.865 L 448.768 35.857 L 448.76 35.85 L 448.751 35.842 L 448.742 35.835 L 448.734 35.828 L 448.725 35.82 L 448.717 35.813 L 448.708 35.807 L 448.699 35.8 L 448.69 35.793 L 448.681 35.786 L 448.671 35.78 L 448.662 35.774 L 448.653 35.767 L 448.644 35.761 L 448.635 35.755 L 448.625 35.749 L 448.615 35.743 L 448.606 35.738 L 448.596 35.732 L 448.587 35.727 L 448.577 35.721 L 448.567 35.716 L 448.557 35.711 L 448.546 35.706 L 448.537 35.701 L 448.526 35.697 L 448.516 35.692 L 448.506 35.688 L 448.496 35.683 L 448.486 35.679 L 448.475 35.675 L 448.465 35.671 L 448.454 35.667 L 448.443 35.663 L 448.433 35.66 L 448.423 35.656 L 448.411 35.653 L 448.401 35.649 L 448.39 35.646 L 448.379 35.643 L 448.368 35.641 L 448.358 35.638 L 448.347 35.635 L 448.336 35.633 L 448.325 35.63 L 448.313 35.628 L 448.303 35.626 L 448.292 35.624 L 448.28 35.622 L 448.269 35.62 L 448.258 35.619 L 448.247 35.617 L 448.236 35.616 L 448.224 35.615 L 448.213 35.614 L 448.202 35.613 L 448.19 35.613 L 448.179 35.612 L 448.168 35.612 L 448.157 35.611 L 448.145 35.611 L 448.133 35.611 L 448.122 35.611 Z " fill-rule="evenodd" fill="rgb(0,136,119)"/></g></g><g transform="matrix(1.264,0,0,1.264,465.724,19.768)"><text transform="matrix(1,0,0,1,0.479,9.62)" style="font-family:&quot;Open Sans&quot;;font-weight:400;font-size:9px;font-style:normal;fill:#002222;stroke:none;">DAN</text></g><g transform="matrix(1.264,0,0,1.264,465.724,35.264)"><text transform="matrix(1,0,0,1,0.656,6.413)" style="font-family:&quot;Open Sans&quot;;font-weight:400;font-size:6px;font-style:normal;fill:#002222;stroke:none;">FRONT</text></g><g id="Grupo"><path d="M 340.339 280.421 L 376.488 280.421 C 377.364 280.421 378.074 281.131 378.074 282.006 L 378.074 301.835 C 378.074 302.71 377.364 303.421 376.488 303.421 L 340.339 303.421 C 339.464 303.421 338.753 302.71 338.753 301.835 L 338.753 282.006 C 338.753 281.131 339.464 280.421 340.339 280.421 Z" style="stroke:none;fill:#000000;stroke-linecap:square;stroke-miterlimit:3;"/><g transform="matrix(1,0,0,1,342.204,278.542)"><text transform="matrix(1,0,0,1,9.341,19.295)" style="font-family:&quot;Saira Condensed&quot;;font-weight:400;font-size:17px;font-style:normal;fill:#ffffff;stroke:none;">14</text></g></g></g></g></svg>